<svg xmlns="http://www.w3.org/2000/svg" xmlns:xlink="http://www.w3.org/1999/xlink" xmlns:lucid="lucid" width="1001.55" height="1121"><g transform="translate(1421 380)" lucid:page-tab-id="0_0"><path d="M-1500-500H0v1500h-1500z" fill="#fff"/><path d="M-1400-280h800V720h-800z" stroke="#232f3e" stroke-width="2" fill-opacity="0"/><path d="M-1400-280h56v56h-56v-56z" stroke="#fff" stroke-opacity="0" fill="#232f3e"/><path d="M-1381.78-254.13c-.04.48.05.87.17 1.34.1.4.28.7.48 1.08.04.1.08.2.08.33 0 .2-.12.36-.28.46l-.95.62c-.12.08-.25.13-.37.13-.16 0-.33-.06-.45-.2-.2-.22-.36-.43-.52-.7-.17-.25-.3-.53-.46-.86-1.1 1.37-2.62 2.1-4.4 2.06-1.14.06-2.12-.3-2.95-1.08-.78-.8-1.14-1.76-1.1-2.85-.05-1.23.4-2.28 1.35-3.08 1.07-.86 2.3-1.23 3.65-1.16.58 0 1.03.02 1.6.1.58.1 1.12.2 1.73.33v-1.1c.08-.88-.16-1.67-.7-2.37-.74-.56-1.56-.8-2.46-.7-.53 0-1.03.07-1.6.2-.58.13-1.03.3-1.6.5l-.5.2h-.24c-.2 0-.33-.16-.33-.45v-.75c0-.18.04-.33.12-.5.12-.16.24-.26.4-.33.66-.3 1.2-.5 1.9-.67.77-.2 1.47-.3 2.3-.28 1.47-.13 2.78.26 3.9 1.2.94 1.05 1.35 2.28 1.22 3.67zm-6.07 2.28c.57 0 1.06-.1 1.6-.28.57-.2 1.03-.5 1.43-.96.25-.27.42-.56.5-.93.12-.45.16-.84.16-1.3v-.67c-.53-.1-.94-.17-1.43-.2h-1.4c-.8-.08-1.55.12-2.2.58-.54.45-.8 1.04-.75 1.73-.04.62.13 1.16.54 1.6.44.38.97.52 1.55.45zm12 1.6c-.22 0-.42-.03-.6-.15-.15-.17-.23-.36-.32-.6l-3.5-11.5-.1-.62c0-.24.1-.37.36-.37h1.47c.2 0 .37.04.57.15.17.18.25.37.3.6l2.5 9.96 2.38-9.93c0-.24.08-.44.28-.6.17-.12.37-.16.58-.15h1.2c.24 0 .4.03.6.15.17.18.25.36.3.6l2.33 9.94 2.56-10c.04-.2.16-.4.33-.58.15-.1.36-.17.56-.14h1.4c.16 0 .33.12.37.3v.31s0 .2-.12.35l-3.6 11.53c-.05.22-.13.42-.3.6-.2.1-.37.14-.57.13h-1.27c-.25.04-.45-.02-.62-.15-.16-.17-.25-.36-.3-.6l-2.3-9.6-2.3 9.6h.02c-.05.24-.13.44-.3.6-.2.13-.4.2-.6.16zm19.2.38c-.82 0-1.5-.07-2.3-.25-.65-.13-1.14-.3-1.72-.6-.2-.1-.37-.23-.45-.4-.08-.16-.12-.3-.12-.45v-.75c0-.3.12-.46.32-.46h.3l.36.16c.58.23 1.03.4 1.6.5.62.14 1.15.2 1.8.2.8.05 1.5-.1 2.2-.5.48-.3.77-.8.73-1.4.04-.4-.13-.76-.38-1.04-.46-.4-.95-.65-1.52-.8l-2.18-.67c-.94-.26-1.72-.74-2.38-1.5-.5-.66-.74-1.36-.74-2.2 0-.58.12-1.07.4-1.6.3-.5.63-.88 1.08-1.2.5-.4.98-.62 1.6-.8.66-.17 1.2-.25 1.9-.24.32-.03.6-.03.97 0l1 .16.8.22.67.26c.16.1.28.22.45.38.08.15.12.3.12.5v.7c0 .3-.12.47-.37.47-.2-.03-.37-.08-.57-.18-.95-.42-1.8-.6-2.88-.58-.7-.04-1.3.08-1.97.4-.5.3-.74.8-.7 1.36 0 .4.13.76.45 1.05.5.4 1 .65 1.6.82l2.1.67c.94.24 1.68.7 2.3 1.44.5.64.7 1.3.7 2.1 0 .63-.13 1.17-.37 1.73-.3.55-.62.95-1.1 1.32-.5.4-1 .66-1.6.84-.75.23-1.4.33-2.15.34zM-1353.9-242.5c-5.6 3.8-11.36 5.56-18.15 5.54-8.54.05-15.82-2.74-22.16-8.45-.5-.42 0-1 .48-.68 7.07 4.05 14.03 5.9 22.2 5.9 6.1-.04 11.3-1.1 16.93-3.47.83-.35 1.52.55.7 1.14z" stroke="#fff" stroke-opacity="0" fill="#fff"/><path d="M-1351.84-244.8c-.64-.8-4.16-.38-5.75-.2-.46 0-.53-.36-.1-.66 2.8-1.98 7.42-1.4 8-.74.6.67-.14 5.28-2.78 7.5-.4.33-.78.13-.6-.3.54-1.52 1.86-4.83 1.24-5.6z" stroke="#fff" stroke-opacity="0" fill="#fff"/><use xlink:href="#a" transform="matrix(1,0,0,1,-1329,-260) translate(0 14.222222222222223)"/><use xlink:href="#b" transform="matrix(1,0,0,1,-1329,-260) translate(45.333333333333336 14.222222222222223)"/><path d="M-1300 40h120v120h-120V40z" stroke="#fff" stroke-opacity="0" stroke-width="2" fill="#c8511b"/><path d="M-1201.7 104.06c-.47-2.48-3.3-4.25-5.3-5.53-.62-.4-2.3-1.04-2.45-1.6 0-.4 0-.8.15-1.2l1.6-11.46 1.4-10.17c.37-3.05-1.1-5.13-3.62-6.9-5.13-3.6-11.88-5.04-17.94-6-7.97-1.28-14.95-1.52-23-.72-7.28.48-13.34 1.92-20.08 4.8-3.38 1.6-7.9 4.1-7.3 8.42 1.55 12.97 3.46 25.95 5.23 38.93.75 5.93 1.6 11.86 2.36 17.8.3 2.47 1.7 4.4 4 5.35 4.9 2.65 11.03 3.45 16.63 3.93 7.73.73 14.32.5 22-.95 4.6-.8 13.18-2.25 13.94-8 .92-7.14 1.92-14.27 2.84-21.4l.38-2.17c2.6.64 10.05 2 9.13-3.12zm-40.65-40.86c9.66 0 20.63 1.12 29.2 5.85 1.4.72 4.46 2.32 3.54 4.33-.93 1.92-3.84 2.88-5.6 3.6-2.6.96-5 1.6-7.75 2.16-11.96 2.4-22.54 2.65-34.65.72-5.45-.56-9.97-1.92-14.88-4.32-1.15-.72-3.06-1.84-2.53-3.45.38-.9 1-1.53 1.83-2 3.76-2.4 7.2-3.85 11.58-4.66 6.6-1.6 12.43-2.32 19.25-2.24zm25.15 67.46c-.3 1.84-3.37 2.8-4.83 3.28-3.22 1.12-6.06 1.76-9.43 2.16-7.44.97-13.88.97-21.4 0-4.67-.4-8.58-1.44-12.8-3.52-1.14-.48-1.83-1.52-1.9-2.73-1.62-12.73-3.38-25.4-5.15-38.05l-1.85-13.78c3.84 2.1 7.36 3.37 11.66 4.1 4.68.95 8.6 1.43 13.35 1.75 9.2.64 17.1.24 26.22-1.44 4.83-.72 8.8-2.08 13.1-4.4l-3.37 25.07c-8.58-2.8-15.64-5.6-23.7-9.54-.37-.16-.68-.32-.98-.48-.46-.32-.3-.16-.54-.64-.38-.96-.46-1.6-1.3-2.4-.77-.56-1.6-.8-2.53-.72-2 .08-3.53 1.84-3.38 3.84.16 1.93 1.92 3.45 3.9 3.3.55-.1 1-.25 1.62-.5.6-.15.6-.15 1.22.17 8.2 4 15.33 6.97 24 9.85 1.22.4 1.22 0 1.22 1.04-.07.8-.15 1.53-.3 2.33l-1 7.6zm-24.7-37.9c0 .48-.6.4-.75.16-.23-.32.76-.72.76-.16zm31.53 11.22l.45-3.53c1.62.97 4.3 2.33 5.07 4.1-1.62.63-4.07-.17-5.53-.57z" stroke="#fff" stroke-opacity="0" stroke-width="2" fill="#fff"/><use xlink:href="#c" transform="matrix(1,0,0,1,-1330,169) translate(27.099999999999994 14.4)"/><use xlink:href="#d" transform="matrix(1,0,0,1,-1330,169) translate(98.05 14.4)"/><use xlink:href="#e" transform="matrix(1,0,0,1,-1330,169) translate(6.624999999999986 36)"/><use xlink:href="#f" transform="matrix(1,0,0,1,-1330,169) translate(74.57499999999999 36)"/><use xlink:href="#g" transform="matrix(1,0,0,1,-1330,169) translate(139.47500000000002 36)"/><path d="M-1020-160h120v120h-120v-120z" stroke="#000" stroke-opacity="0" fill="url(#h)"/><path d="M-926.87-121.7c0 .97-.5 1.86-1.32 2.34l-31.85 18.47v39.36c0 .96-.5 1.85-1.32 2.34-.43.24-.95.4-1.38.4-.52 0-.95-.16-1.4-.4l-30.1-17.42c-.88-.57-1.4-1.45-1.4-2.42v-38.4c0-.95.52-1.84 1.4-2.32l33.18-19.2c.8-.56 1.82-.56 2.7 0l30.04 14.84c.95.56 1.46 1.45 1.46 2.42zm-35.52 17.82l30.63-17.74-27.9-13.87-32.24 18.64v37.25l28.12 16.28v-38.22c0-.97.5-1.85 1.4-2.34zm38.45-9.6c.88.5 1.4 1.38 1.4 2.34v32.26c0 .97-.52 1.85-1.4 2.34l-26.23 17.42c-.52.24-1.03.4-1.54.4-.44 0-.95-.16-1.3-.32-.9-.5-1.4-1.45-1.4-2.42V-77.2c0-.95.5-1.84 1.24-2.33l11.9-8.95v-15.16c0-1.45 1.18-2.1 1.62-2.33l13-7.5c.88-.5 1.9-.5 2.7 0zm-2.34 34.04v-29.92l-11.24 6.53v15.24c0 .66-.3 1.14-.73 1.54l-12.43 9.36v13.38z" stroke="#000" stroke-opacity="0" fill="#fff"/><use xlink:href="#i" transform="matrix(1,0,0,1,-1050,-31) translate(28.074999999999996 14.4)"/><use xlink:href="#j" transform="matrix(1,0,0,1,-1050,-31) translate(99.025 14.4)"/><use xlink:href="#k" transform="matrix(1,0,0,1,-1050,-31) translate(15.649999999999991 36)"/><use xlink:href="#l" transform="matrix(1,0,0,1,-1050,-31) translate(98.5 36)"/><path d="M-1020 40h120v120h-120V40z" stroke="#fff" stroke-opacity="0" fill="#c8511b"/><path d="M-950 140.42c-.32 0-.56-.08-.8-.25l-9.2-5.5-9.2 5.5c-.48.33-1.04.33-1.6 0l-18.8-11.47c-.5-.33-.73-.8-.73-1.38v-11.48l-8.9-5c-.47-.25-.8-.82-.8-1.38V90.54c0-.56.33-1.13.8-1.37l8.82-5v-11.5c0-.55.23-1.12.8-1.36l18.8-11.47c.48-.32 1.04-.32 1.6 0l9.12 5.5 9.2-5.5c.48-.32 1.04-.32 1.6 0l18.9 11.48c.47.33.7.82.7 1.38v11.48l8.9 5c.48.25.8.82.8 1.4v18.9c0 .56-.32 1.13-.8 1.37l-8.8 5v11.5c0 .56-.33 1.12-.8 1.37l-18.82 11.47c-.24.17-.48.25-.8.25zm-8.4-8.5l8.4 5.02 17.2-10.5v-11.57c0-.56.33-1.05.8-1.37l7.13-4.04-6-3.23c-1.92 1.6-4.8 1.37-6.48-.5-1.6-1.93-1.44-4.84.48-6.54 2-1.62 4.88-1.38 6.48.48.8.9 1.13 1.86 1.13 3.07v.65l6.16 3.4V91.42l-8.9-4.93c-.55-.32-.8-.8-.8-1.37v-4.37h-4.47c-.88 2.43-3.52 3.64-5.92 2.75-2.3-.88-3.6-3.54-2.7-5.9.95-2.4 3.6-3.63 5.9-2.74 1.37.5 2.25 1.46 2.73 2.75h4.48v-4.03l-17.2-10.5-8.4 5V85.7l8.88 5.1c2-1.47 4.9-1.06 6.4.96 1.53 2.02 1.13 4.85-.87 6.38-2 1.54-4.88 1.13-6.4-.9-.64-.88-.96-1.77-.96-2.73 0-.4.08-.64.16-.97l-9.6-5.5c-.48-.3-.8-.8-.8-1.45v-18.5l-8.4-5.02-7.6 4.6V79h-3.2v-9.4l-6.4 3.97v10.67l8 4.53 8-4.53V76h3.2v9.13c0 .56-.32 1.05-.8 1.37l-8.8 4.93v7.68l8.8 5.75c.48.33.72.8.72 1.38v5.33l6.4-3.8v-6.8l-8.4-5 1.6-2.75 9.28 5.5c.48.33.8.82.8 1.38v20.78h7.28c.88-2.35 3.52-3.56 5.93-2.67 1.85.63 2.97 2.33 2.97 4.27-.16 2.6-2.4 4.53-4.88 4.37-1.86-.17-3.3-1.14-4.02-2.75h-7.36zm-18.25.9l6.65 4.04 8.4-5v-20.38l-17.85 10.6-1.6-2.84 9.85-5.82v-6.4l-8-5.24-8.97 5.1-1.6-2.84 9.04-5v-7.6l-8-4.53-8 4.53v5.9l6.8-4.04 1.6 2.74-8.5 4.93v7.52l8.02 4.52 8.07-4.77 1.6 2.74-8.08 4.76v10.67l7.2 4.45 8.32-4.93.15.16.33-.23 1.6 2.75zm29.86-11.88c-.72 0-1.36.64-1.36 1.37 0 .82.64 1.47 1.37 1.47.8 0 1.45-.65 1.45-1.46-.08-.72-.64-1.28-1.44-1.28zm12.97-19.64c-.8 0-1.44.56-1.44 1.37 0 .73.64 1.37 1.44 1.37.72 0 1.36-.64 1.36-1.37 0-.73-.64-1.38-1.36-1.38zm-12.96-8.25c-.72 0-1.36.57-1.36 1.37 0 .73.64 1.38 1.37 1.38.8 0 1.45-.65 1.45-1.38-.08-.72-.64-1.37-1.44-1.37zm5.2-15.28c-.8 0-1.35.65-1.35 1.46 0 .73.56 1.37 1.36 1.37s1.37-.64 1.37-1.37v-.08c0-.73-.64-1.38-1.36-1.38z" stroke="#fff" stroke-opacity="0" fill="#fff"/><use xlink:href="#m" transform="matrix(1,0,0,1,-1050,169) translate(15.474999999999994 14.4)"/><use xlink:href="#n" transform="matrix(1,0,0,1,-1050,169) translate(121.575 14.4)"/><use xlink:href="#o" transform="matrix(1,0,0,1,-1050,169) translate(8.574999999999989 36)"/><use xlink:href="#p" transform="matrix(1,0,0,1,-1050,169) translate(79.52499999999999 36)"/><path d="M-442.16-225.04l-52.44-52.8c-3-2.88-7.68-2.88-10.44 0l-11.52 11.28 13.68 13.68c.84-.36 2.04-.6 3.24-.6 5.04 0 9.12 4.08 9.12 9.12 0 1.2-.24 2.4-.6 3.36l13.32 13.32c.84-.36 2.16-.6 3.24-.6 5.04 0 9.24 4.08 9.24 9.12 0 5.04-4.2 9.24-9.24 9.24s-9.12-4.2-9.12-9.24c0-1.2.24-2.4.6-3.24l-12.48-12.48v32.64c3 1.44 5.04 4.68 5.04 8.04 0 5.04-4.08 9.12-9.12 9.12-5.04 0-9.24-4.08-9.24-9.12 0-3.96 2.4-7.2 6-8.64v-33.24c-3.6-1.08-6-4.68-6-8.52 0-1.2.36-2.4.6-3.24l-13.56-13.68-35.88 36.48c-3 2.88-3 7.68 0 10.32l52.44 52.44c3 3 7.68 3 10.32 0l52.44-52.44c3.36-2.88 3.36-7.68.36-10.32z" stroke="#000" stroke-opacity="0" fill="#c8511b"/><use xlink:href="#q" transform="matrix(1,0,0,1,-590,-151) translate(36.599999999999994 14.4)"/><use xlink:href="#r" transform="matrix(1,0,0,1,-590,-151) translate(64.55 14.4)"/><path d="M-1135.95 100.47h-43.55v-.94h43.55zm99.57 0h-27.67v-.94h27.67z" stroke="#3a414a" stroke-width=".05" fill="#3a414a"/><path d="M-1179.5 100.47h-.5v-.94h.5z" fill="#3a414a"/><path stroke="#3a414a" stroke-width=".05" fill="#3a414a"/><path d="M-1021.62 100l-14.26 4.64v-9.28z" fill="#3a414a"/><path d="M-1020.08 100l-16.28 5.3V94.7zm-15.33 3.98l12.25-3.98-12.26-3.98z" stroke="#3a414a" stroke-width=".05" fill="#3a414a"/><path d="M-1135.95 100.47h-27.67v-.94h27.67zm115.45 0h-43.55v-.94h43.55z" stroke="#3a414a" stroke-width=".05" fill="#3a414a"/><path d="M-1020 100.47h-.5v-.94h.5z" fill="#3a414a"/><path stroke="#3a414a" stroke-width=".05" fill="#3a414a"/><path d="M-1164.12 104.64l-14.26-4.64 14.26-4.64z" fill="#3a414a"/><path d="M-1163.64 105.3l-16.28-5.3 16.28-5.3zm-13.2-5.3l12.25 3.98v-7.96z" stroke="#3a414a" stroke-width=".05" fill="#3a414a"/><use xlink:href="#s" transform="matrix(1,0,0,1,-1135.9506172839506,89.33333333333333) translate(0.005000000000002558 14.222222222222223)"/><path d="M-1300-160h120v120h-120v-120z" stroke="#fff" stroke-opacity="0" stroke-width="2" fill="#d86613"/><path d="M-1203.2-95.2h-8.02v-3.18h8.02v-38.44h-38.43v8.02h-3.2v-8.02c0-1.75 1.45-3.18 3.2-3.18h38.43c1.75 0 3.18 1.43 3.18 3.18v38.44c0 1.75-1.43 3.18-3.18 3.18zM-1238.4-60h-38.43c-1.75 0-3.2-1.43-3.2-3.18v-38.44c0-1.75 1.45-3.18 3.2-3.18h8v3.18h-8v38.44h38.43v-8.02h3.18v8.02c0 1.75-1.43 3.18-3.18 3.18z" stroke="#fff" stroke-opacity="0" stroke-width="2" fill="#fff"/><path d="M-1214.4-114.4v-3.2h-4.8c-.12-1.7-1.5-3.1-3.2-3.2v-4.8h-3.2v4.8h-4.77v-4.8h-3.23v4.8h-4.8v-4.8h-3.2v4.8h-4.8v-4.8h-3.17v4.8h-4.82v-4.8h-3.2v4.8c-1.7.1-3.1 1.5-3.2 3.2h-4.8v3.2h4.8v4.83h-4.8v3.17h4.8v4.8h-4.8v3.2h4.8v4.8h-4.8v3.23h4.8v4.76h-4.8v3.2h4.8c.12 1.7 1.5 3.1 3.2 3.2v4.8h3.2v-4.8h4.83v4.8h3.17v-4.8h4.8v4.8h3.2v-4.8h4.8v4.8h3.23v-4.8h4.76v4.8h3.2v-4.8c1.7-.1 3.1-1.5 3.2-3.2h4.8v-3.2h-4.8v-4.77h4.8v-3.23h-4.8v-4.8h4.8v-3.2h-4.8v-4.8h4.8v-3.17h-4.8v-4.82zm-8 31.7c0 .16-.14.3-.3.3h-34.6c-.16 0-.3-.14-.3-.3v-34.6c0-.16.14-.3.3-.3h34.6c.16 0 .3.14.3.3z" stroke="#fff" stroke-opacity="0" stroke-width="2" fill="#fff"/><use xlink:href="#t" transform="matrix(1,0,0,1,-1330,-31) translate(8.125 14.4)"/><use xlink:href="#u" transform="matrix(1,0,0,1,-1330,-31) translate(118.97500000000001 14.4)"/><path d="M-777 0h120v120h-120V0z" stroke="#fff" stroke-opacity="0" stroke-width="2" fill="#d86613"/><path d="M-708.33 77.2l2.23-2.28-4.58-4.52 5.12-3.83-1.92-2.57-6.63 4.96c-.08.06-.13.1-.2.18-.62.63-.6 1.63.04 2.25zM-690.52 71.75l-5.12 3.84 1.92 2.56 6.63-4.96c.4-.3.6-.7.65-1.18.03-.5-.14-.9-.5-1.25l-5.92-5.76-2.23 2.3z" stroke="#fff" stroke-opacity="0" stroke-width="2" fill="#fff"/><path d="M-706.34 80.95l8.45-19.2 2.93 1.3-8.45 19.2-2.92-1.3z" stroke="#fff" stroke-opacity="0" stroke-width=".81" fill="#fff"/><path d="M-675.58 33.2l-4.45-3.76-7.14-5.84-1.85-1.6c-.34-.32-.67-.4-1-.4h-59.4c0-.88-.66-1.6-1.6-1.6h-6.37c-.83 0-1.58.72-1.58 1.6v16c0 .88.75 1.6 1.6 1.6h6.38v59.2c0 .88.75 1.6 1.6 1.6h17.63c.84 0 1.6-.72 1.6-1.6V36h28.8v11.76l-17.97 7.44h-1.26c-.92 0-1.6.72-1.6 1.6v28.8c0 .88.68 1.6 1.6 1.6h41.57c.93 0 1.6-.72 1.6-1.6V56.8c0-.88-.67-1.6-1.6-1.6h-1.26l-17.88-7.44V36h21.6c.66 0 1.25-.4 1.5-1.04s0-1.36-.5-1.76zm-15.04-8.32l-8.23 7.44-9.9-7.52h18.13zm-41.15 8h-12.77l7.9-6 7.8 5.92zm-15.2 32.72l13.6-12.08v24.16zm12.76 15.6l-13.53 12.08V69.12zM-747.74 62V37.92L-734.2 50zm13.7-37.2h19.98l-10 7.52zm22.67 2l7.9 6h-15.88zm-28.05-2l-10 7.6v-7.6zM-752.6 36h-3.2V23.2h3.2V36zm5.63 60.8l13.6-12v12zm13.6-50.4L-745.2 36h11.83zm52.75 37.52h-38.4v-25.6h38.4zm-30.4-28.8l11.25-4.64 11.17 4.64zm16.37-22.4l6.47-5.84 7.22 5.92z" stroke="#fff" stroke-opacity="0" stroke-width="2" fill="#fff"/><use xlink:href="#v" transform="matrix(1,0,0,1,-807.0000000000001,129.00000000000028) translate(25.924999999999997 14.4)"/><use xlink:href="#w" transform="matrix(1,0,0,1,-807.0000000000001,129.00000000000028) translate(71.225 14.4)"/><path d="M-777-180h120v120h-120v-120z" stroke="#fff" stroke-opacity="0" stroke-width="2" fill="#d86613"/><path d="M-685.8-160h-62.4-.08c-4.88 0-8.72 4-8.72 8.8v17.68c0 4.88 4 8.72 8.8 8.72h2.4v43.2c0 .88.72 1.6 1.6 1.6h54.4c.88 0 1.6-.72 1.6-1.6v-43.2h2.48c4.88 0 8.72-4 8.72-8.8v-17.6-.08c0-4.88-4-8.72-8.8-8.72zm-5.68 76.8h-51.2v-41.6h51.2zm5.68-44.8h-62.4c-2.8 0-5.12-2-5.44-4.8h27.2v-3.2h-27.2v-15.2c-.08-3.04 2.4-5.52 5.44-5.6h62.4c3.04 0 5.6 2.4 5.6 5.44V-136h-30.4v3.2h30.4c-.4 2.8-2.8 4.88-5.6 4.8z" stroke="#fff" stroke-opacity="0" stroke-width="2" fill="#fff"/><path d="M-736.88-104.23l9.16 7.88 2.1-2.4-7.78-6.72 7.82-6.9-2.12-2.4-9.2 8.12c-.34.32-.53.74-.53 1.22s.2.88.55 1.2zM-706.2-96.3l9.22-7.98c.36-.33.54-.74.54-1.22 0-.47-.2-.88-.54-1.2l-9.22-8-2.1 2.4 7.83 6.8-7.83 6.86z" stroke="#fff" stroke-opacity="0" stroke-width="2" fill="#fff"/><path d="M-723.22-91.9l11-26.86 2.96 1.2-11 26.85-2.96-1.2z" stroke="#fff" stroke-opacity="0" stroke-width=".76" fill="#fff"/><path d="M-721.8-136h6.4v3.2h-6.4v-3.2z" stroke="#fff" stroke-opacity="0" stroke-width="2" fill="#fff"/><use xlink:href="#v" transform="matrix(1,0,0,1,-807.0000000000001,-51) translate(13.949999999999989 14.4)"/><use xlink:href="#x" transform="matrix(1,0,0,1,-807.0000000000001,-51) translate(59.249999999999986 14.4)"/><path d="M-763 420h120v120h-120V420z" stroke="#fff" stroke-opacity="0" stroke-width="2" fill="#d86613"/><path d="M-690.2 481.08c-.8 0-1.52-.62-1.6-1.44v-.45c-.24-2.07-1.04-2.85-2.72-4.42l-.48-.5c-2.24-2.17-4.88-3.2-8-3.2-4.96 0-10.56 2.14-11.2 8.1v.46c0 .9-.72 1.6-1.6 1.6-.88 0-1.6-.7-1.6-1.6-.16-2.35-1.13-3.25-2.97-5.1l-.24-.2c-2.25-2.15-4.88-3.22-8-3.22-6.1 0-10.5 3.08-11.2 7.86-.1.87-.9 1.53-1.77 1.44-.88-.08-1.52-.86-1.44-1.73.47-21.67 18.32-38.9 40-38.64 22.4 0 39.6 16.6 40 38.68v.16c0 .87-.72 1.56-1.6 1.56-.88 0-1.6-.7-1.6-1.56v-.12c0-1.32-1.28-2.64-3.2-4.5-2.24-2.13-4.88-3.2-8-3.2-4.88 0-10.8 2.26-11.2 8.52-.08.86-.72 1.52-1.6 1.52zm-38.4-13.22c4 0 7.36 1.36 10.15 4.12l.33.25c.8.74 1.44 1.44 2.08 2.26 2.24-4.08 6.96-6.5 13.04-6.5 4 0 7.36 1.35 10.24 4.06l.48.5c.72.66 1.28 1.27 1.92 2.02 2.24-4.08 6.96-6.63 12.96-6.63 4 0 7.36 1.35 10.24 4.1l.32.34c-3.2-17.1-17.76-29.2-36.16-29.2-17.2-.2-31.77 11.1-35.77 27.88 3.04-2.27 6.32-3.34 10.16-3.22z" stroke="#fff" stroke-opacity="0" stroke-width="2" fill="#fff"/><path d="M-742.2 480.1l1.75-2.7 14.3 9.3-1.74 2.7-14.3-9.3z" stroke="#fff" stroke-opacity="0" stroke-width="1.09" fill="#fff"/><path d="M-678.26 486.4l12.77-8.88 1.83 2.63-12.76 8.88-1.83-2.62z" stroke="#fff" stroke-opacity="0" stroke-width="1.64" fill="#fff"/><path d="M-690.3 486.82l-3.1-.85 1.6-6.74v-1.6c0-20.3-5.86-34.5-11.2-34.5-5.33 0-11.2 14.2-11.2 34.56v1.5l1.6 6.73-3.08.84-1.6-6.88v-2.3C-717.4 453.2-710 440-703 440c6.98 0 14.4 13.2 14.4 37.73v1.08c-.02.3-.02.48 0 .7v.48zM-709.93 510l-5.87-5.78c-.35-.33-.5-.75-.48-1.24.03-.5.25-.9.64-1.18l6.62-5 1.92 2.56-5.1 3.84 4.56 4.46zM-695.3 510.94l-1.92-2.56 5.13-3.84-4.5-4.46 2.24-2.3 5.92 5.8c.63.6.65 1.62.03 2.25l-.2.17z" stroke="#fff" stroke-opacity="0" stroke-width="2" fill="#fff"/><path d="M-707.96 513.75l8.47-19.2 2.93 1.3-8.46 19.2-2.93-1.3z" stroke="#fff" stroke-opacity="0" stroke-width=".81" fill="#fff"/><path d="M-682.2 520h-40c-.87 0-1.6-.73-1.6-1.6v-27.2c0-.87.73-1.6 1.6-1.6h40c.87 0 1.6.73 1.6 1.6v27.2c0 .87-.73 1.6-1.6 1.6zm-38.4-3.2h36.8v-24h-36.8z" stroke="#fff" stroke-opacity="0" stroke-width="2" fill="#fff"/><use xlink:href="#v" transform="matrix(1,0,0,1,-793.0000000000001,548.9999999999999) translate(17.924999999999997 14.4)"/><use xlink:href="#y" transform="matrix(1,0,0,1,-793.0000000000001,548.9999999999999) translate(63.224999999999994 14.4)"/><path d="M-1380-180h540v400h-540z" fill="#fff" fill-opacity="0"/><path d="M-1368.1-180h7.95m7.94 0h7.93m7.95 0h7.94m7.94 0h7.94m7.94 0h7.94m7.94 0h7.95m7.94 0h7.95m7.94 0h7.93m7.94 0h7.94m7.95 0h7.94m7.93 0h7.95m7.94 0h7.94m7.94 0h7.94m7.94 0h7.94m7.95 0h7.94m7.95 0h7.94m7.93 0h7.94m7.94 0h7.95m7.94 0h7.93m7.95 0h7.94m7.94 0h7.94m7.94 0h7.94m7.94 0h7.94m7.95 0h7.95m7.94 0h7.93m7.94 0h7.94m7.95 0h7.94m7.94 0h7.94m7.94 0h7.94m7.94 0h7.94m7.94 0h7.94m7.94 0h7.95m7.95 0h7.94m7.93 0h3.97v4m0 8v8m0 8v8m0 8v8m0 8v8m0 8v8m0 8v8m0 8v8m0 8v8m0 8v8m0 8v8m0 8v8m0 8v8m0 8v8m0 8v8m0 8v8m0 8v8m0 8v8m0 8v8m0 8v8m0 8v8m0 8v8m0 8v8m0 8v8m0 8v8m0 8v4h-3.97m-7.94 0h-7.95m-7.94 0h-7.94m-7.94 0h-7.94m-7.94 0h-7.94m-7.94 0h-7.94m-7.94 0h-7.94m-7.95 0h-7.95m-7.94 0h-7.93m-7.94 0h-7.94m-7.95 0h-7.94m-7.94 0h-7.94m-7.94 0h-7.94m-7.94 0h-7.94m-7.94 0h-7.94m-7.95 0h-7.94m-7.95 0h-7.94m-7.93 0h-7.94m-7.94 0h-7.95m-7.94 0h-7.93m-7.95 0h-7.94m-7.94 0h-7.94m-7.94 0h-7.94m-7.94 0h-7.95m-7.94 0h-7.95m-7.94 0h-7.93m-7.94 0h-7.94m-7.95 0h-7.94m-7.93 0h-7.95m-7.94 0h-7.94m-7.94 0h-7.94m-7.94 0h-7.94m-7.95 0h-7.94m-7.95 0h-7.94m-7.93 0h-3.97v-4m0-8v-8m0-8v-8m0-8v-8m0-8v-8m0-8v-8m0-8v-8m0-8v-8m0-8v-8m0-8v-8m0-8v-8m0-8v-8m0-8v-8m0-8V8m0-8v-8m0-8v-8m0-8v-8m0-8v-8m0-8v-8m0-8v-8m0-8v-8m0-8v-8m0-8v-8m0-8v-8m0-8v-8m0-8v-4h3.97" stroke="#147eba" stroke-width="2" fill="none"/><path d="M-1379.95 220v-400h16.4v400z" stroke="#000" stroke-opacity="0" stroke-width="2" fill="#fff" fill-opacity="0"/><path d="M-656.5-120h33.5a6 6 0 0 1 6 6V54a6 6 0 0 1-6 6h-17.62" stroke="#3a414a" fill="none"/><path d="M-656.5-119.53h-.5v-.94h.5z" stroke="#3a414a" stroke-width=".05" fill="#3a414a"/><path d="M-655.38 60l14.26-4.63v9.27z" stroke="#3a414a" fill="#3a414a"/><path d="M-1379.95 300H-840v398.5h-539.95z" fill="#fff" fill-opacity="0"/><path d="M-1368.04 300h7.94m7.94 0h7.94m7.94 0h7.94m7.94 0h7.94m7.94 0h7.94m7.94 0h7.95m7.94 0h7.95m7.93 0h7.94m7.94 0h7.95m7.94 0h7.93m7.94 0h7.94m7.95 0h7.94m7.93 0h7.94m7.94 0h7.95m7.94 0h7.93m7.94 0h7.94m7.95 0h7.94m7.93 0h7.95m7.94 0h7.94m7.94 0h7.94m7.94 0h7.94m7.94 0h7.94m7.94 0h7.94m7.94 0h7.94m7.94 0h7.94m7.94 0h7.94m7.94 0h7.94m7.94 0h7.94m7.95 0h7.94m7.94 0h7.95m7.94 0h7.93m7.94 0h7.94m7.95 0h7.94m7.93 0h3.97v4m0 7.95v7.98m0 7.96v7.97m0 7.96v7.98m0 7.97v7.98m0 7.96v8m0 7.95v7.98m0 7.97v7.96m0 7.98v7.96m0 7.98v7.96m0 7.98v7.96m0 7.98v7.96m0 7.98v7.96m0 7.98v7.96m0 7.97v7.98m0 7.97v7.97m0 7.95v7.98m0 7.97v7.97m0 7.96v7.98m0 7.98v7.97m0 7.97v7.96m0 7.98v7.97m0 7.97v7.96m0 7.98v7.97m0 7.98v7.96m0 7.98v3.98h-3.97m-7.94 0h-7.95m-7.94 0h-7.93m-7.94 0h-7.94m-7.95 0h-7.94m-7.93 0h-7.95m-7.94 0h-7.94m-7.94 0h-7.94m-7.94 0h-7.94m-7.94 0h-7.94m-7.94 0h-7.94m-7.94 0h-7.94m-7.94 0h-7.94m-7.94 0h-7.94m-7.94 0h-7.94m-7.94 0h-7.94m-7.94 0h-7.95m-7.94 0h-7.95m-7.94 0h-7.93m-7.94 0h-7.94m-7.95 0h-7.94m-7.93 0h-7.94m-7.94 0h-7.95m-7.94 0h-7.93m-7.94 0h-7.94m-7.95 0h-7.94m-7.93 0h-7.94m-7.94 0h-7.96m-7.93 0h-7.93m-7.95 0h-7.94m-7.94 0h-7.94m-7.94 0h-7.94m-7.94 0h-7.94m-7.94 0h-7.94m-7.94 0h-3.97v-4m0-7.96v-7.96m0-7.98v-7.97m0-7.97v-7.96m0-7.98v-7.97m0-7.97v-7.96m0-7.98v-7.97m0-7.97v-7.97m0-7.96V567m0-7.98v-7.97m0-7.96v-8m0-7.96v-7.97m0-7.96v-7.96m0-7.98v-7.96m0-7.98v-7.96m0-7.98v-7.96m0-7.98v-7.96m0-7.98v-7.96m0-7.98v-7.96m0-7.98v-7.97m0-7.96v-8m0-7.95v-7.98m0-7.96v-7.97m0-7.96v-7.98m0-7.97v-7.98m0-7.96v-4h3.97" stroke="#147eba" stroke-width="2" fill="none"/><path d="M-1379.9 698.5V300h16.4v398.5z" stroke="#000" stroke-opacity="0" stroke-width="2" fill="#fff" fill-opacity="0"/><path d="M-1300 317h120v120h-120V317z" stroke="#fff" stroke-opacity="0" stroke-width="2" fill="#c8511b"/><path d="M-1201.7 381.06c-.47-2.48-3.3-4.25-5.3-5.53-.62-.4-2.3-1.04-2.45-1.6 0-.4 0-.8.15-1.2l1.6-11.46 1.4-10.17c.37-3.05-1.1-5.13-3.62-6.9-5.13-3.6-11.88-5.04-17.94-6-7.97-1.28-14.95-1.52-23-.72-7.28.48-13.34 1.92-20.08 4.8-3.38 1.6-7.9 4.1-7.3 8.42 1.55 12.98 3.46 25.95 5.23 38.93.75 5.93 1.6 11.86 2.36 17.8.3 2.47 1.7 4.4 4 5.35 4.9 2.65 11.03 3.45 16.63 3.93 7.73.73 14.32.5 22-.95 4.6-.8 13.18-2.25 13.94-8 .92-7.14 1.92-14.27 2.84-21.4l.38-2.17c2.6.64 10.05 2 9.13-3.12zm-40.65-40.86c9.66 0 20.63 1.12 29.2 5.85 1.4.72 4.46 2.32 3.54 4.33-.93 1.92-3.84 2.88-5.6 3.6-2.6.96-5 1.6-7.75 2.16-11.96 2.4-22.54 2.65-34.65.73-5.45-.57-9.97-1.93-14.88-4.33-1.15-.72-3.06-1.84-2.53-3.45.38-.9 1-1.53 1.83-2 3.76-2.4 7.2-3.85 11.58-4.66 6.6-1.6 12.43-2.32 19.25-2.24zm25.15 67.46c-.3 1.84-3.37 2.8-4.83 3.28-3.22 1.12-6.06 1.76-9.43 2.16-7.44.97-13.88.97-21.4 0-4.67-.4-8.58-1.44-12.8-3.52-1.14-.48-1.83-1.52-1.9-2.72-1.62-12.74-3.38-25.4-5.15-38.06l-1.85-13.78c3.84 2.1 7.36 3.37 11.66 4.1 4.68.95 8.6 1.43 13.35 1.75 9.2.64 17.1.24 26.22-1.44 4.83-.72 8.8-2.08 13.1-4.4l-3.37 25.07c-8.58-2.8-15.64-5.6-23.7-9.54-.37-.16-.68-.32-.98-.48-.46-.32-.3-.16-.54-.64-.38-.96-.46-1.6-1.3-2.4-.77-.56-1.6-.8-2.53-.72-2 .08-3.53 1.84-3.38 3.84.16 1.93 1.92 3.45 3.9 3.3.55-.1 1-.25 1.62-.5.6-.15.6-.15 1.22.17 8.2 4 15.33 6.97 24 9.85 1.22.4 1.22 0 1.22 1.04-.07.8-.15 1.53-.3 2.33l-1 7.6zm-24.7-37.9c0 .48-.6.4-.75.16-.23-.32.76-.72.76-.16zm31.53 11.22l.45-3.53c1.62.97 4.3 2.33 5.07 4.1-1.62.63-4.07-.17-5.53-.57z" stroke="#fff" stroke-opacity="0" stroke-width="2" fill="#fff"/><use xlink:href="#i" transform="matrix(1,0,0,1,-1330,446.0000000000001) translate(27.099999999999994 14.4)"/><use xlink:href="#z" transform="matrix(1,0,0,1,-1330,446.0000000000001) translate(98.05 14.4)"/><use xlink:href="#A" transform="matrix(1,0,0,1,-1330,446.0000000000001) translate(6.624999999999986 36)"/><use xlink:href="#B" transform="matrix(1,0,0,1,-1330,446.0000000000001) translate(74.57499999999999 36)"/><use xlink:href="#C" transform="matrix(1,0,0,1,-1330,446.0000000000001) translate(139.47500000000002 36)"/><path d="M-1020 317h120v120h-120V317z" stroke="#fff" stroke-opacity="0" fill="#c8511b"/><path d="M-950 417.42c-.32 0-.56-.1-.8-.25l-9.2-5.5-9.2 5.5c-.48.33-1.04.33-1.6 0l-18.8-11.47c-.5-.33-.73-.8-.73-1.38v-11.48l-8.9-5c-.47-.25-.8-.82-.8-1.38v-18.9c0-.58.33-1.15.8-1.4l8.82-5v-11.48c0-.56.23-1.13.8-1.37l18.8-11.47c.48-.32 1.04-.32 1.6 0l9.12 5.5 9.2-5.5c.48-.32 1.04-.32 1.6 0l18.9 11.48c.47.33.7.82.7 1.38v11.48l8.9 5c.48.25.8.82.8 1.38v18.92c0 .56-.32 1.13-.8 1.37l-8.8 5v11.5c0 .56-.33 1.12-.8 1.37l-18.82 11.47c-.24.16-.48.25-.8.25zm-8.4-8.5l8.4 5.02 17.2-10.5v-11.57c0-.56.33-1.05.8-1.37l7.13-4.04-6-3.23c-1.92 1.6-4.8 1.37-6.48-.5-1.6-1.93-1.44-4.84.48-6.54 2-1.62 4.88-1.38 6.48.48.8.9 1.13 1.86 1.13 3.07v.65l6.16 3.4v-15.37l-8.9-4.93c-.55-.32-.8-.8-.8-1.37v-4.37h-4.47c-.88 2.43-3.52 3.64-5.92 2.75-2.3-.88-3.6-3.54-2.7-5.9.95-2.4 3.6-3.63 5.9-2.74 1.37.5 2.25 1.46 2.73 2.75h4.48v-4.03l-17.2-10.5-8.4 5v17.63l8.88 5.1c2-1.47 4.9-1.06 6.4.96 1.53 2.02 1.13 4.85-.87 6.38-2 1.54-4.88 1.13-6.4-.9-.64-.88-.96-1.76-.96-2.74 0-.4.08-.64.16-.96l-9.6-5.5c-.48-.32-.8-.8-.8-1.46v-18.5l-8.4-5.02-7.6 4.6V356h-3.2v-9.4l-6.4 3.97v10.67l8 4.53 8-4.53V353h3.2v9.13c0 .56-.32 1.05-.8 1.37l-8.8 4.93v7.68l8.8 5.75c.48.32.72.8.72 1.38v5.33l6.4-3.8v-6.8l-8.4-5 1.6-2.75 9.28 5.5c.48.33.8.82.8 1.38v20.78h7.28c.88-2.35 3.52-3.56 5.93-2.67 1.85.63 2.97 2.33 2.97 4.27-.16 2.6-2.4 4.53-4.88 4.37-1.86-.16-3.3-1.13-4.02-2.75h-7.36zm-18.25.9l6.65 4.04 8.4-5v-20.38l-17.85 10.6-1.6-2.84 9.85-5.82v-6.4l-8-5.24-8.97 5.1-1.6-2.84 9.04-5v-7.6l-8-4.53-8 4.53v5.9l6.8-4.04 1.6 2.74-8.5 4.93v7.52l8.02 4.5 8.07-4.75 1.6 2.74-8.08 4.76v10.67l7.2 4.45 8.32-4.93.15.16.33-.23 1.6 2.75zm29.86-11.88c-.72 0-1.36.64-1.36 1.37 0 .82.64 1.46 1.37 1.46.8 0 1.45-.64 1.45-1.45-.08-.72-.64-1.28-1.44-1.28zm12.97-19.64c-.8 0-1.44.56-1.44 1.37 0 .73.64 1.37 1.44 1.37.72 0 1.36-.64 1.36-1.37 0-.73-.64-1.38-1.36-1.38zm-12.96-8.25c-.72 0-1.36.57-1.36 1.37 0 .73.64 1.38 1.37 1.38.8 0 1.45-.65 1.45-1.38-.08-.72-.64-1.37-1.44-1.37zm5.2-15.28c-.8 0-1.35.65-1.35 1.46 0 .73.56 1.37 1.36 1.37s1.37-.64 1.37-1.37v-.08c0-.73-.64-1.38-1.36-1.38z" stroke="#fff" stroke-opacity="0" fill="#fff"/><use xlink:href="#i" transform="matrix(1,0,0,1,-1050,446.0000000000001) translate(8.574999999999989 14.4)"/><use xlink:href="#p" transform="matrix(1,0,0,1,-1050,446.0000000000001) translate(79.52499999999999 14.4)"/><path d="M-1292.58 520h97.83v120h-97.83v-14.16h-8.17v-5.4h8.17v-9.12h-8.17v-5.4h8.17v-8.88h-8.17v-5.4h8.17v-8.76h-8.17v-5.4h8.17v-9h-8.17v-5.4h8.17v-9h-8.17v-5.52h8.17v-8.88h-8.17v-5.52h8.17zm5.5 5.4v8.76h8.5v5.52h-8.5v8.88h8.5v5.52h-8.5v9h8.5v5.4h-8.5v9h8.5v5.4h-8.5v8.76h8.5v5.4h-8.5v8.88h8.5v5.4h-8.5v9.12h8.5v5.4h-8.5v8.76h86.82V525.4zm18.88 48.96v-5.4h54.16v5.4zm0-34.68v-5.52h54.16v5.52zm0 17.4v-5.4h54.16v5.4zm0 34.68v-5.4h27.24v5.4z" stroke="#000" stroke-opacity="0" fill="#d86613"/><use xlink:href="#D" transform="matrix(1,0,0,1,-1330.7455282702501,649) translate(41.075 14.4)"/><use xlink:href="#E" transform="matrix(1,0,0,1,-1330.7455282702501,649) translate(79.025 14.4)"/><path d="M-904.44 638.5h-111.12c-3.6 0-5.64-5.62-3.6-8.54l38.28-56.04c.48-.7.72-1.52.72-2.46V534.5c0-1.18-.96-2.24-2.16-2.24h-2.04c-2.52 0-4.44-1.87-4.44-4.33v-1.98c0-2.46 1.92-4.45 4.44-4.45h48.72c2.52 0 4.44 2 4.44 4.45v1.98c0 2.35-1.92 4.33-4.44 4.33h-2.04c-1.2 0-2.16 1.06-2.16 2.23v37.08c0 .93.24 1.75.72 2.45l38.4 55.93c1.92 2.92-.12 8.54-3.72 8.54z" stroke="#000" stroke-opacity="0" fill="url(#F)"/><path d="M-1002.77 623.5l29.12-42.5c1.3-1.83 1.9-3.8 1.9-6v-17.15c0-1.82 1.55-3.36 3.36-3.36h16.55c1.8 0 3.36 1.53 3.36 3.35v18.33c0 1.46.44 2.77 1.3 4l29.73 43.3c.77 1.17.52 2.78-.7 3.58-.42.3-.85.44-1.37.44h-81.16c-1.38 0-2.5-1.17-2.5-2.55 0-.5.17-1.03.43-1.46z" stroke="#000" stroke-opacity="0" fill="#fff"/><path d="M-990.6 605.8c11.12-7.35 24.35-7.87 36-1.46 3.07 1.54 5.96 2.45 9.37 2.98 5 .7 11.4.5 13.67-4.34l14.8 21c.7 1.04.53 2.42-.52 3.1-.35.28-.8.42-1.23.42h-83.23c-1.23 0-2.2-1-2.2-2.24 0-.46.1-.88.45-1.26z" stroke="#000" stroke-opacity="0" fill="url(#G)"/><path d="M-945.36 591.06c0 4.5-3.63 8.13-8.1 8.13s-8.1-3.66-8.1-8.14c0-4.5 3.63-8.13 8.1-8.13s8.1 3.64 8.1 8.13z" stroke="#000" stroke-opacity="0" fill="url(#H)"/><path d="M-957.96 575.68c0 2.66-2.15 4.8-4.8 4.8s-4.8-2.14-4.8-4.8c0-2.65 2.15-4.8 4.8-4.8s4.8 2.15 4.8 4.8z" stroke="#000" stroke-opacity="0" fill="url(#I)"/><use xlink:href="#J" transform="matrix(1,0,0,1,-1050,647.5) translate(73.525 14.4)"/><path d="M-1300.5-100h-33.5a6 6 0 0 0-6 6V94.96a6 6 0 0 0 6 6h17.62" stroke="#3a414a" fill="none"/><path d="M-1300-99.53h-.5v-.94h.5z" stroke="#3a414a" stroke-width=".05" fill="#3a414a"/><path d="M-1301.62 100.96l-14.26 4.63V96.3z" stroke="#3a414a" fill="#3a414a"/><path d="M-899.5-100h33.5a6 6 0 0 1 6 6V94a6 6 0 0 1-6 6h-17.62" stroke="#3a414a" fill="none"/><path d="M-899.5-99.53h-.5v-.94h.5z" stroke="#3a414a" stroke-width=".05" fill="#3a414a"/><path d="M-898.38 100l14.26-4.64v9.28z" stroke="#3a414a" fill="#3a414a"/><path d="M-1179.5-100h143.12" stroke="#3a414a" fill="none"/><path d="M-1179.5-99.53h-.5v-.94h.5z" stroke="#3a414a" stroke-width=".05" fill="#3a414a"/><path d="M-1021.62-100l-14.26 4.64v-9.28z" stroke="#3a414a" fill="#3a414a"/><path d="M-1199.94-114a6 6 0 0 1 6-6h168a6 6 0 0 1 6 6v8a6 6 0 0 1-6 6h-168a6 6 0 0 1-6-6z" fill="none"/><use xlink:href="#K" transform="matrix(1,0,0,1,-1199.935981867726,-120) translate(25.674999999999997 14.4)"/><use xlink:href="#L" transform="matrix(1,0,0,1,-1199.935981867726,-120) translate(70.575 14.4)"/><use xlink:href="#M" transform="matrix(1,0,0,1,-1199.935981867726,-120) translate(64.025 36)"/><path d="M-1357.54 30a6 6 0 0 1-6-6v-78a6 6 0 0 1 6-6h8a6 6 0 0 1 6 6v78a6 6 0 0 1-6 6z" fill="none"/><use xlink:href="#N" transform="matrix(6.123233995736766e-17,-1,1,6.123233995736766e-17,-1363.5389365189128,30.000000000000227) translate(7.574999999999996 14.4)"/><path d="M-681.75 310c-21.75 17.15-53.26 13.52-70.48-8.25-17.1-21.77-13.5-53.43 8.26-70.66.3-.2.5-.3.7-.52l.6-.4c22.06-16.73 53.47-12.4 70.18 9.78 16.62 21.97 12.5 53.12-9.25 70.05" stroke="#000" stroke-opacity="0" fill="url(#O)"/><path d="M-726.16 259.73c14.76-14.05 32.18-21.04 52.56-21.13-2.72-3.35-5.32-5.9-8.77-8.5-10.04.6-18.45 2.6-27.7 6.5-9.5 4.07-16.87 9.17-24 16.6 3.44 1.34 5.98 3.42 7.9 6.53zM-750.96 280c-2.13 5.3-3.6 9.9-4.92 15.48 1.17 1.97 2.26 3.6 3.66 5.43 1.08 1.4 2.05 2.54 3.26 3.82 1.5-7.4 3.43-13.52 6.4-20.44-3.3-.6-6-1.96-8.4-4.28z" stroke="#000" stroke-opacity="0" fill="#ff9150" fill-opacity=".6"/><path d="M-745.18 253.1c-2.2-5.9-3.42-11.13-4.07-17.38-2.6 2.75-4.55 5.35-6.5 8.6.72 5 1.72 9.18 3.34 13.96 1.95-2.48 4.23-4.13 7.22-5.2z" stroke="#000" stroke-opacity="0" fill="#ff8443" fill-opacity=".55"/><path d="M-723.62 268.3c0 8.9-7.23 16.14-16.14 16.14-8.9 0-16.14-7.23-16.14-16.14 0-8.9 7.24-16.14 16.14-16.14s16.14 7.23 16.14 16.14z" stroke="#000" stroke-opacity="0" fill="url(#P)"/><path d="M-716.37 297.75c0-2.93 1.07-5.44 3.17-7.48-5.7-3.15-10.16-6.46-14.87-11-2.43 2.64-5.25 4.2-8.77 4.86 2.77 2.9 5.32 5.17 8.53 7.58 3.97 3 7.56 5.2 12.05 7.38-.07-.45-.1-.85-.12-1.33zM-679.15 299.05c-5.73 0-10.6-.56-16.2-1.9v.68c0 2.85-.98 5.3-2.97 7.33 6.96 1.38 12.98 1.8 20.08 1.43 2.7-2.54 4.7-4.93 6.8-7.98-2.7.3-5 .43-7.7.43z" stroke="#000" stroke-opacity="0" fill="#ff8443" fill-opacity=".55"/><path d="M-695.44 297.82c0 5.8-4.68 10.5-10.44 10.5s-10.44-4.7-10.44-10.5 4.68-10.5 10.44-10.5 10.44 4.7 10.44 10.5z" stroke="#000" stroke-opacity="0" fill="url(#Q)"/><path d="M-692.92 269.84c.58-2.4 1.74-4.3 3.6-5.86-10.26-7.44-18.1-14.82-26.28-24.54-4.76-5.62-8.22-10.76-11.68-17.24-2.36.7-4.26 1.43-6.44 2.47 3.7 7.05 7.46 12.72 12.57 18.82 8.74 10.47 17.22 18.38 28.23 26.34z" stroke="#000" stroke-opacity="0" fill="#ff8443" fill-opacity=".7"/><path d="M-670.84 271.84c0 6.16-4.97 11.16-11.1 11.16s-11.1-5-11.1-11.16 4.97-11.16 11.1-11.16 11.1 5 11.1 11.16z" stroke="#000" stroke-opacity="0" fill="#fff"/><path d="M-663.34 279.35l-1.88-1-.2-.1-1.73-.94-.32-.18c-.54-.28-1.05-.58-1.58-.87l-.4-.23-1.85-1.06c-.65 2.27-1.86 4.03-3.74 5.46.72.4 1.46.84 2.2 1.27l.5.26 2.05 1.15.2.12c1.66.9 3.33 1.8 5.1 2.66.74-2.27 1.24-4.23 1.66-6.57z" stroke="#000" stroke-opacity="0" fill="#ff8443" fill-opacity=".55"/><path d="M-723.62 268.3c0 8.9-7.23 16.14-16.14 16.14-8.9 0-16.14-7.23-16.14-16.14 0-8.9 7.24-16.14 16.14-16.14s16.14 7.23 16.14 16.14zM-695.44 297.82c0 5.8-4.68 10.5-10.44 10.5s-10.44-4.7-10.44-10.5 4.68-10.5 10.44-10.5 10.44 4.7 10.44 10.5z" stroke="#000" stroke-opacity="0" fill="#fff"/><path d="M-645.32 340h-58c-1.88 0-2.95-2.93-1.94-4.46l20.04-29.26c.25-.36.38-.8.38-1.28v-19.36c0-.6-.5-1.1-1.13-1.1h-1.07c-1.25 0-2.3-1.04-2.3-2.32v-.98c0-1.28 1-2.32 2.3-2.32h25.44c1.25 0 2.25 1.04 2.25 2.32v1.04c0 1.28-1 2.26-2.25 2.26h-1.07c-.7 0-1.2.55-1.2 1.16V305c0 .55.14.98.45 1.35l19.98 29.2c1.13 1.52 0 4.45-1.88 4.45z" stroke="#000" stroke-opacity="0" fill="url(#R)"/><path d="M-696.65 332.26l15.2-22.2c.68-1 1-2 1-3.18v-8.93c0-.95.76-1.75 1.75-1.75h8.64c.94 0 1.75.76 1.75 1.75v9.58c0 .8.22 1.45.67 2.1l15.52 22.63c.4.6.26 1.45-.37 1.87-.22.15-.44.23-.7.23h-42.36c-.72 0-1.35-.57-1.35-1.34 0-.26.1-.5.23-.76z" stroke="#000" stroke-opacity="0" fill="#fff"/><path d="M-692.04 325.56c7.8-5.13 16.68-6.14 25.44-2.9 0 0 5.6 3.1 7.56-.58l7.15 9.97c.65.86.43 2.06-.45 2.67-.32.25-.68.36-1.1.36h-41.98c-1.06 0-1.93-.86-1.93-1.93 0-.43.14-.8.37-1.14z" stroke="#000" stroke-opacity="0" fill="#d86613"/><use xlink:href="#J" transform="matrix(1,0,0,1,-793.0000000000001,348.99999999999983) translate(73.525 14.4)"/><path d="M-656.5 60h33.5a6 6 0 0 1 6 6v208a6 6 0 0 1-6 6h-20.46" stroke="#3a414a" fill="none"/><path d="M-656.5 60.48h-.5v-.95h.5z" stroke="#3a414a" stroke-width=".05" fill="#3a414a"/><path d="M-658.23 280l14.27-4.63v9.26z" stroke="#3a414a" fill="#3a414a"/><path d="M-659.35 280H-623a6 6 0 0 1 6 6v188a6 6 0 0 1-6 6h-3.62" stroke="#3a414a" fill="none"/><path d="M-659.33 280.48h-.33l-.35-.88-.18-.08h.85z" stroke="#3a414a" stroke-width=".05" fill="#3a414a"/><path d="M-641.38 480l14.26-4.63v9.26z" stroke="#3a414a" fill="#3a414a"/><path d="M-1142.17 377.48h-21.44l-.02-.96h21.45zm121.67 0h-37.33v-.96h37.33z" stroke="#3a414a" stroke-width=".05" fill="#3a414a"/><path d="M-1020 377.48h-.5v-.96h.5z" fill="#3a414a"/><path stroke="#3a414a" stroke-width=".05" fill="#3a414a"/><path d="M-1164.12 381.63l-14.26-4.63 14.27-4.63z" fill="#3a414a"/><path d="M-1163.64 382.3l-16.28-5.3 16.28-5.3zm-13.2-5.3l12.25 3.98v-7.96z" stroke="#3a414a" stroke-width=".05" fill="#3a414a"/><g><use xlink:href="#S" transform="matrix(1,0,0,1,-1142.1728395061727,366.3333333333334) translate(0.005000000000002558 14.222222222222223)"/><use xlink:href="#T" transform="matrix(1,0,0,1,-1142.1728395061727,366.3333333333334) translate(39.36302469135803 14.222222222222223)"/></g><path d="M-1300.5 377h-33.5a6 6 0 0 0-6 6v187.7a6 6 0 0 0 6 6h25.03" stroke="#3a414a" fill="none"/><path d="M-1300 377.48h-.5v-.96h.5z" stroke="#3a414a" stroke-width=".05" fill="#3a414a"/><path d="M-1294.2 576.7l-14.27 4.63v-9.26z" stroke="#3a414a" fill="#3a414a"/><path d="M-1194.25 580h192.83" stroke="#3a414a" fill="none"/><path d="M-1194.23 580.48h-.52v-.96h.52z" stroke="#3a414a" stroke-width=".05" fill="#3a414a"/><path d="M-986.65 580l-14.27 4.63v-9.26z" stroke="#3a414a" fill="#3a414a"/><g><path d="M-1358.95 560a1.05 1.05 0 0 1-1.05-1.05v-177.9a1.05 1.05 0 0 1 1.05-1.05 1.05 1.05 0 0 1 1.05 1.05v177.9a1.05 1.05 0 0 1-1.05 1.05z" fill="none"/></g><g><use xlink:href="#U" transform="matrix(6.123233995736766e-17,-1,1,6.123233995736766e-17,-1360,559.9999999999998) translate(47.3 14.4)"/><use xlink:href="#V" transform="matrix(6.123233995736766e-17,-1,1,6.123233995736766e-17,-1360,559.9999999999998) translate(87.15 14.4)"/></g><path d="M-762.6 280h-31.95a6 6 0 0 0-6 6v207.25a6 6 0 0 1-6 6h-16.07" stroke="#3a414a" fill="none"/><path d="M-762 280.48h-.62v-.96h.4z" stroke="#3a414a" stroke-width=".05" fill="#3a414a"/><path d="M-837.38 499.25l14.26-4.63v9.26z" stroke="#3a414a" fill="#3a414a"/><path d="M-1260-234a6 6 0 0 1 6-6h308a6 6 0 0 1 6 6v68a6 6 0 0 1-6 6h-308a6 6 0 0 1-6-6z" fill="none"/><g><use xlink:href="#W" transform="matrix(1,0,0,1,-1260,-240) translate(2.0472222222222456 44.48888888888889)"/><use xlink:href="#X" transform="matrix(1,0,0,1,-1260,-240) translate(58.033641975308655 44.48888888888889)"/><use xlink:href="#Y" transform="matrix(1,0,0,1,-1260,-240) translate(189.89475308641974 44.48888888888889)"/><use xlink:href="#Z" transform="matrix(1,0,0,1,-1260,-240) translate(235.90586419753086 44.48888888888889)"/></g><path d="M-1240 260.32a6 6 0 0 1 6-6h308a6 6 0 0 1 6 6v39.36a6 6 0 0 1-6 6h-308a6 6 0 0 1-6-6z" fill="none"/><g><use xlink:href="#aa" transform="matrix(1,0,0,1,-1240,254.3184809753172) translate(74.77345679012348 30.488888888888887)"/><use xlink:href="#ab" transform="matrix(1,0,0,1,-1240,254.3184809753172) translate(145.6604938271605 30.488888888888887)"/></g><path d="M-1160-354a6 6 0 0 1 6-6h308a6 6 0 0 1 6 6v68a6 6 0 0 1-6 6h-308a6 6 0 0 1-6-6z" fill="none"/><g><use xlink:href="#ac" transform="matrix(1,0,0,1,-1160,-360) translate(58.814814814814824 47.111111111111114)"/></g><path d="M-560.42-220.24H-711a6 6 0 0 0-6 6v17.86" stroke="#3a414a" fill="none"/><path d="M-559.97-219.94l.02.18h-.48v-.96h.58z" stroke="#3a414a" stroke-width=".05" fill="#3a414a"/><path d="M-717-181.62l-4.63-14.26h9.26z" stroke="#3a414a" fill="#3a414a"/><defs><path fill="#666" d="M199 0l-22-63H83L61 0H9l90-248h61L250 0h-51zm-33-102l-36-108c-10 38-24 72-36 108h72" id="ad"/><path fill="#666" d="M275 0h-61l-44-196L126 0H64L0-248h53L97-49l45-199h58l43 199 44-199h52" id="ae"/><path fill="#666" d="M169-182c-1-43-94-46-97-3 18 66 151 10 154 114 3 95-165 93-204 36-6-8-10-19-12-30l50-8c3 46 112 56 116 5-17-69-150-10-154-114-4-87 153-88 188-35 5 8 8 18 10 28" id="af"/><g id="a"><use transform="matrix(0.04938271604938272,0,0,0.04938271604938272,0,0)" xlink:href="#ad"/><use transform="matrix(0.04938271604938272,0,0,0.04938271604938272,11.80246913580247,0)" xlink:href="#ae"/><use transform="matrix(0.04938271604938272,0,0,0.04938271604938272,28.543209876543205,0)" xlink:href="#af"/></g><path fill="#666" d="M67-125c0 53 21 87 73 88 37 1 54-22 65-47l45 17C233-25 199 4 140 4 58 4 20-42 15-125 8-235 124-281 211-232c18 10 29 29 36 50l-46 12c-8-25-30-41-62-41-52 0-71 34-72 86" id="ag"/><path fill="#666" d="M25 0v-261h50V0H25" id="ah"/><path fill="#666" d="M110-194c64 0 96 36 96 99 0 64-35 99-97 99-61 0-95-36-95-99 0-62 34-99 96-99zm-1 164c35 0 45-28 45-65 0-40-10-65-43-65-34 0-45 26-45 65 0 36 10 65 43 65" id="ai"/><path fill="#666" d="M85 4C-2 5 27-109 22-190h50c7 57-23 150 33 157 60-5 35-97 40-157h50l1 190h-47c-2-12 1-28-3-38-12 25-28 42-61 42" id="aj"/><path fill="#666" d="M88-194c31-1 46 15 58 34l-1-101h50l1 261h-48c-2-10 0-23-3-31C134-8 116 4 84 4 32 4 16-41 15-95c0-56 19-97 73-99zm17 164c33 0 40-30 41-66 1-37-9-64-41-64s-38 30-39 65c0 43 13 65 39 65" id="ak"/><g id="b"><use transform="matrix(0.04938271604938272,0,0,0.04938271604938272,0,0)" xlink:href="#ag"/><use transform="matrix(0.04938271604938272,0,0,0.04938271604938272,12.790123456790125,0)" xlink:href="#ah"/><use transform="matrix(0.04938271604938272,0,0,0.04938271604938272,17.7283950617284,0)" xlink:href="#ai"/><use transform="matrix(0.04938271604938272,0,0,0.04938271604938272,28.54320987654322,0)" xlink:href="#aj"/><use transform="matrix(0.04938271604938272,0,0,0.04938271604938272,39.35802469135803,0)" xlink:href="#ak"/></g><path d="M205 0l-28-72H64L36 0H1l101-248h38L239 0h-34zm-38-99l-47-123c-12 45-31 82-46 123h93" id="al"/><path d="M210-169c-67 3-38 105-44 169h-31v-121c0-29-5-50-35-48C34-165 62-65 56 0H25l-1-190h30c1 10-1 24 2 32 10-44 99-50 107 0 11-21 27-35 58-36 85-2 47 119 55 194h-31v-121c0-29-5-49-35-48" id="am"/><path d="M141-36C126-15 110 5 73 4 37 3 15-17 15-53c-1-64 63-63 125-63 3-35-9-54-41-54-24 1-41 7-42 31l-33-3c5-37 33-52 76-52 45 0 72 20 72 64v82c-1 20 7 32 28 27v20c-31 9-61-2-59-35zM48-53c0 20 12 33 32 33 41-3 63-29 60-74-43 2-92-5-92 41" id="an"/><path d="M9 0v-24l116-142H16v-24h144v24L44-24h123V0H9" id="ao"/><path d="M100-194c62-1 85 37 85 99 1 63-27 99-86 99S16-35 15-95c0-66 28-99 85-99zM99-20c44 1 53-31 53-75 0-43-8-75-51-75s-53 32-53 75 10 74 51 75" id="ap"/><path d="M117-194c89-4 53 116 60 194h-32v-121c0-31-8-49-39-48C34-167 62-67 57 0H25l-1-190h30c1 10-1 24 2 32 11-22 29-35 61-36" id="aq"/><g id="c"><use transform="matrix(0.05,0,0,0.05,0,0)" xlink:href="#al"/><use transform="matrix(0.05,0,0,0.05,12,0)" xlink:href="#am"/><use transform="matrix(0.05,0,0,0.05,26.950000000000003,0)" xlink:href="#an"/><use transform="matrix(0.05,0,0,0.05,36.95,0)" xlink:href="#ao"/><use transform="matrix(0.05,0,0,0.05,45.95,0)" xlink:href="#ap"/><use transform="matrix(0.05,0,0,0.05,55.95,0)" xlink:href="#aq"/></g><path d="M185-189c-5-48-123-54-124 2 14 75 158 14 163 119 3 78-121 87-175 55-17-10-28-26-33-46l33-7c5 56 141 63 141-1 0-78-155-14-162-118-5-82 145-84 179-34 5 7 8 16 11 25" id="ar"/><path d="M24-231v-30h32v30H24zM24 0v-190h32V0H24" id="as"/><path d="M115-194c55 1 70 41 70 98S169 2 115 4C84 4 66-9 55-30l1 105H24l-1-265h31l2 30c10-21 28-34 59-34zm-8 174c40 0 45-34 45-75s-6-73-45-74c-42 0-51 32-51 76 0 43 10 73 51 73" id="at"/><path d="M24 0v-261h32V0H24" id="au"/><path d="M100-194c63 0 86 42 84 106H49c0 40 14 67 53 68 26 1 43-12 49-29l28 8c-11 28-37 45-77 45C44 4 14-33 15-96c1-61 26-98 85-98zm52 81c6-60-76-77-97-28-3 7-6 17-6 28h103" id="av"/><g id="d"><use transform="matrix(0.05,0,0,0.05,0,0)" xlink:href="#ar"/><use transform="matrix(0.05,0,0,0.05,12,0)" xlink:href="#as"/><use transform="matrix(0.05,0,0,0.05,15.949999999999998,0)" xlink:href="#am"/><use transform="matrix(0.05,0,0,0.05,30.899999999999995,0)" xlink:href="#at"/><use transform="matrix(0.05,0,0,0.05,40.9,0)" xlink:href="#au"/><use transform="matrix(0.05,0,0,0.05,44.85,0)" xlink:href="#av"/></g><path d="M59-47c-2 24 18 29 38 22v24C64 9 27 4 27-40v-127H5v-23h24l9-43h21v43h35v23H59v120" id="aw"/><path d="M114-163C36-179 61-72 57 0H25l-1-190h30c1 12-1 29 2 39 6-27 23-49 58-41v29" id="ax"/><path d="M177-190C167-65 218 103 67 71c-23-6-38-20-44-43l32-5c15 47 100 32 89-28v-30C133-14 115 1 83 1 29 1 15-40 15-95c0-56 16-97 71-98 29-1 48 16 59 35 1-10 0-23 2-32h30zM94-22c36 0 50-32 50-73 0-42-14-75-50-75-39 0-46 34-46 75s6 73 46 73" id="ay"/><g id="e"><use transform="matrix(0.05,0,0,0.05,0,0)" xlink:href="#ar"/><use transform="matrix(0.05,0,0,0.05,12,0)" xlink:href="#aw"/><use transform="matrix(0.05,0,0,0.05,17,0)" xlink:href="#ap"/><use transform="matrix(0.05,0,0,0.05,27,0)" xlink:href="#ax"/><use transform="matrix(0.05,0,0,0.05,32.95,0)" xlink:href="#an"/><use transform="matrix(0.05,0,0,0.05,42.95,0)" xlink:href="#ay"/><use transform="matrix(0.05,0,0,0.05,52.95,0)" xlink:href="#av"/></g><path d="M108 0H70L1-190h34L89-25l56-165h34" id="az"/><path d="M96-169c-40 0-48 33-48 73s9 75 48 75c24 0 41-14 43-38l32 2c-6 37-31 61-74 61-59 0-76-41-82-99-10-93 101-131 147-64 4 7 5 14 7 22l-32 3c-4-21-16-35-41-35" id="aA"/><g id="f"><use transform="matrix(0.05,0,0,0.05,0,0)" xlink:href="#ar"/><use transform="matrix(0.05,0,0,0.05,12,0)" xlink:href="#av"/><use transform="matrix(0.05,0,0,0.05,22,0)" xlink:href="#ax"/><use transform="matrix(0.05,0,0,0.05,27.950000000000003,0)" xlink:href="#az"/><use transform="matrix(0.05,0,0,0.05,36.95,0)" xlink:href="#as"/><use transform="matrix(0.05,0,0,0.05,40.900000000000006,0)" xlink:href="#aA"/><use transform="matrix(0.05,0,0,0.05,49.900000000000006,0)" xlink:href="#av"/></g><path d="M87 75C49 33 22-17 22-94c0-76 28-126 65-167h31c-38 41-64 92-64 168S80 34 118 75H87" id="aB"/><path d="M126-127c33 6 58 20 58 59 0 88-139 92-164 29-3-8-5-16-6-25l32-3c6 27 21 44 54 44 32 0 52-15 52-46 0-38-36-46-79-43v-28c39 1 72-4 72-42 0-27-17-43-46-43-28 0-47 15-49 41l-32-3c6-42 35-63 81-64 48-1 79 21 79 65 0 36-21 52-52 59" id="aC"/><path d="M33-261c38 41 65 92 65 168S71 34 33 75H2C39 34 66-17 66-93S39-220 2-261h31" id="aD"/><g id="g"><use transform="matrix(0.05,0,0,0.05,0,0)" xlink:href="#aB"/><use transform="matrix(0.05,0,0,0.05,5.95,0)" xlink:href="#ar"/><use transform="matrix(0.05,0,0,0.05,17.95,0)" xlink:href="#aC"/><use transform="matrix(0.05,0,0,0.05,27.950000000000003,0)" xlink:href="#aD"/></g><linearGradient gradientUnits="userSpaceOnUse" id="h" x1="-1020" y1="-40" x2="-900" y2="-160"><stop offset="0%" stop-color="#c8511b"/><stop offset="100%" stop-color="#f90"/></linearGradient><g id="i"><use transform="matrix(0.05,0,0,0.05,0,0)" xlink:href="#al"/><use transform="matrix(0.05,0,0,0.05,12,0)" xlink:href="#am"/><use transform="matrix(0.05,0,0,0.05,26.950000000000003,0)" xlink:href="#an"/><use transform="matrix(0.05,0,0,0.05,36.95,0)" xlink:href="#ao"/><use transform="matrix(0.05,0,0,0.05,45.95,0)" xlink:href="#ap"/><use transform="matrix(0.05,0,0,0.05,55.95,0)" xlink:href="#aq"/></g><path d="M30 0v-248h187v28H63v79h144v27H63v87h162V0H30" id="aE"/><path d="M135-143c-3-34-86-38-87 0 15 53 115 12 119 90S17 21 10-45l28-5c4 36 97 45 98 0-10-56-113-15-118-90-4-57 82-63 122-42 12 7 21 19 24 35" id="aF"/><g id="j"><use transform="matrix(0.05,0,0,0.05,0,0)" xlink:href="#aE"/><use transform="matrix(0.05,0,0,0.05,12,0)" xlink:href="#au"/><use transform="matrix(0.05,0,0,0.05,15.949999999999998,0)" xlink:href="#an"/><use transform="matrix(0.05,0,0,0.05,25.950000000000003,0)" xlink:href="#aF"/><use transform="matrix(0.05,0,0,0.05,34.95,0)" xlink:href="#aw"/><use transform="matrix(0.05,0,0,0.05,39.95,0)" xlink:href="#as"/><use transform="matrix(0.05,0,0,0.05,43.900000000000006,0)" xlink:href="#aA"/></g><path d="M212-179c-10-28-35-45-73-45-59 0-87 40-87 99 0 60 29 101 89 101 43 0 62-24 78-52l27 14C228-24 195 4 139 4 59 4 22-46 18-125c-6-104 99-153 187-111 19 9 31 26 39 46" id="aG"/><g id="k"><use transform="matrix(0.05,0,0,0.05,0,0)" xlink:href="#aG"/><use transform="matrix(0.05,0,0,0.05,12.950000000000001,0)" xlink:href="#ap"/><use transform="matrix(0.05,0,0,0.05,22.950000000000003,0)" xlink:href="#aq"/><use transform="matrix(0.05,0,0,0.05,32.95,0)" xlink:href="#aw"/><use transform="matrix(0.05,0,0,0.05,37.95,0)" xlink:href="#an"/><use transform="matrix(0.05,0,0,0.05,47.95,0)" xlink:href="#as"/><use transform="matrix(0.05,0,0,0.05,51.900000000000006,0)" xlink:href="#aq"/><use transform="matrix(0.05,0,0,0.05,61.900000000000006,0)" xlink:href="#av"/><use transform="matrix(0.05,0,0,0.05,71.9,0)" xlink:href="#ax"/></g><path d="M233-177c-1 41-23 64-60 70L243 0h-38l-65-103H63V0H30v-248c88 3 205-21 203 71zM63-129c60-2 137 13 137-47 0-61-80-42-137-45v92" id="aH"/><path d="M179-190L93 31C79 59 56 82 12 73V49c39 6 53-20 64-50L1-190h34L92-34l54-156h33" id="aI"/><g id="l"><use transform="matrix(0.05,0,0,0.05,0,0)" xlink:href="#aH"/><use transform="matrix(0.05,0,0,0.05,12.950000000000001,0)" xlink:href="#av"/><use transform="matrix(0.05,0,0,0.05,22.950000000000003,0)" xlink:href="#ay"/><use transform="matrix(0.05,0,0,0.05,32.95,0)" xlink:href="#as"/><use transform="matrix(0.05,0,0,0.05,36.900000000000006,0)" xlink:href="#aF"/><use transform="matrix(0.05,0,0,0.05,45.900000000000006,0)" xlink:href="#aw"/><use transform="matrix(0.05,0,0,0.05,50.900000000000006,0)" xlink:href="#ax"/><use transform="matrix(0.05,0,0,0.05,56.85,0)" xlink:href="#aI"/></g><path d="M30-248c118-7 216 8 213 122C240-48 200 0 122 0H30v-248zM63-27c89 8 146-16 146-99s-60-101-146-95v194" id="aJ"/><path d="M0 4l72-265h28L28 4H0" id="aK"/><path d="M127-220V0H93v-220H8v-28h204v28h-85" id="aL"/><g id="m"><use transform="matrix(0.05,0,0,0.05,0,0)" xlink:href="#aJ"/><use transform="matrix(0.05,0,0,0.05,12.950000000000001,0)" xlink:href="#av"/><use transform="matrix(0.05,0,0,0.05,22.950000000000003,0)" xlink:href="#at"/><use transform="matrix(0.05,0,0,0.05,32.95,0)" xlink:href="#au"/><use transform="matrix(0.05,0,0,0.05,36.900000000000006,0)" xlink:href="#ap"/><use transform="matrix(0.05,0,0,0.05,46.900000000000006,0)" xlink:href="#aI"/><use transform="matrix(0.05,0,0,0.05,55.900000000000006,0)" xlink:href="#aK"/><use transform="matrix(0.05,0,0,0.05,60.900000000000006,0)" xlink:href="#aL"/><use transform="matrix(0.05,0,0,0.05,71.2,0)" xlink:href="#ax"/><use transform="matrix(0.05,0,0,0.05,77.15,0)" xlink:href="#an"/><use transform="matrix(0.05,0,0,0.05,87.15,0)" xlink:href="#as"/><use transform="matrix(0.05,0,0,0.05,91.10000000000001,0)" xlink:href="#aq"/></g><path d="M84 4C-5 8 30-112 23-190h32v120c0 31 7 50 39 49 72-2 45-101 50-169h31l1 190h-30c-1-10 1-25-2-33-11 22-28 36-60 37" id="aM"/><g id="n"><use transform="matrix(0.05,0,0,0.05,0,0)" xlink:href="#aM"/><use transform="matrix(0.05,0,0,0.05,10,0)" xlink:href="#aF"/><use transform="matrix(0.05,0,0,0.05,19,0)" xlink:href="#as"/><use transform="matrix(0.05,0,0,0.05,22.95,0)" xlink:href="#aq"/><use transform="matrix(0.05,0,0,0.05,32.95,0)" xlink:href="#ay"/></g><g id="o"><use transform="matrix(0.05,0,0,0.05,0,0)" xlink:href="#al"/><use transform="matrix(0.05,0,0,0.05,12,0)" xlink:href="#am"/><use transform="matrix(0.05,0,0,0.05,26.950000000000003,0)" xlink:href="#an"/><use transform="matrix(0.05,0,0,0.05,36.95,0)" xlink:href="#ao"/><use transform="matrix(0.05,0,0,0.05,45.95,0)" xlink:href="#ap"/><use transform="matrix(0.05,0,0,0.05,55.95,0)" xlink:href="#aq"/></g><path d="M240 0l2-218c-23 76-54 145-80 218h-23L58-218 59 0H30v-248h44l77 211c21-75 51-140 76-211h43V0h-30" id="aN"/><path d="M143 0L79-87 56-68V0H24v-261h32v163l83-92h37l-77 82L181 0h-38" id="aO"/><g id="p"><use transform="matrix(0.05,0,0,0.05,0,0)" xlink:href="#ar"/><use transform="matrix(0.05,0,0,0.05,12,0)" xlink:href="#an"/><use transform="matrix(0.05,0,0,0.05,22,0)" xlink:href="#ay"/><use transform="matrix(0.05,0,0,0.05,32,0)" xlink:href="#av"/><use transform="matrix(0.05,0,0,0.05,42,0)" xlink:href="#aN"/><use transform="matrix(0.05,0,0,0.05,56.95,0)" xlink:href="#an"/><use transform="matrix(0.05,0,0,0.05,66.95,0)" xlink:href="#aO"/><use transform="matrix(0.05,0,0,0.05,75.95,0)" xlink:href="#av"/><use transform="matrix(0.05,0,0,0.05,85.95,0)" xlink:href="#ax"/></g><path d="M143 4C61 4 22-44 18-125c-5-107 100-154 193-111 17 8 29 25 37 43l-32 9c-13-25-37-40-76-40-61 0-88 39-88 99 0 61 29 100 91 101 35 0 62-11 79-27v-45h-74v-28h105v86C228-13 192 4 143 4" id="aP"/><g id="q"><use transform="matrix(0.05,0,0,0.05,0,0)" xlink:href="#aP"/><use transform="matrix(0.05,0,0,0.05,14,0)" xlink:href="#as"/><use transform="matrix(0.05,0,0,0.05,17.95,0)" xlink:href="#aw"/></g><g id="r"><use transform="matrix(0.05,0,0,0.05,0,0)" xlink:href="#ax"/><use transform="matrix(0.05,0,0,0.05,5.95,0)" xlink:href="#av"/><use transform="matrix(0.05,0,0,0.05,15.949999999999998,0)" xlink:href="#at"/><use transform="matrix(0.05,0,0,0.05,25.950000000000003,0)" xlink:href="#ap"/><use transform="matrix(0.05,0,0,0.05,35.95,0)" xlink:href="#aF"/><use transform="matrix(0.05,0,0,0.05,44.95,0)" xlink:href="#as"/><use transform="matrix(0.05,0,0,0.05,48.900000000000006,0)" xlink:href="#aw"/><use transform="matrix(0.05,0,0,0.05,53.900000000000006,0)" xlink:href="#ap"/><use transform="matrix(0.05,0,0,0.05,63.900000000000006,0)" xlink:href="#ax"/><use transform="matrix(0.05,0,0,0.05,69.85000000000001,0)" xlink:href="#aI"/></g><path fill="#333" d="M199 0l-22-63H83L61 0H9l90-248h61L250 0h-51zm-33-102l-36-108c-10 38-24 72-36 108h72" id="aQ"/><path fill="#333" d="M135-150c-39-12-60 13-60 57V0H25l-1-190h47c2 13-1 29 3 40 6-28 27-53 61-41v41" id="aR"/><path fill="#333" d="M115-3C79 11 28 4 28-45v-112H4v-33h27l15-45h31v45h36v33H77v99c-1 23 16 31 38 25v30" id="aS"/><path fill="#333" d="M25-224v-37h50v37H25zM25 0v-190h50V0H25" id="aT"/><path fill="#333" d="M121-226c-27-7-43 5-38 36h38v33H83V0H34v-157H6v-33h28c-9-59 32-81 87-68v32" id="aU"/><path fill="#333" d="M133-34C117-15 103 5 69 4 32 3 11-16 11-54c-1-60 55-63 116-61 1-26-3-47-28-47-18 1-26 9-28 27l-52-2c7-38 36-58 82-57s74 22 75 68l1 82c-1 14 12 18 25 15v27c-30 8-71 5-69-32zm-48 3c29 0 43-24 42-57-32 0-66-3-65 30 0 17 8 27 23 27" id="aV"/><path fill="#333" d="M190-63c-7 42-38 67-86 67-59 0-84-38-90-98-12-110 154-137 174-36l-49 2c-2-19-15-32-35-32-30 0-35 28-38 64-6 74 65 87 74 30" id="aW"/><path fill="#333" d="M137-138c1-29-70-34-71-4 15 46 118 7 119 86 1 83-164 76-172 9l43-7c4 19 20 25 44 25 33 8 57-30 24-41C81-84 22-81 20-136c-2-80 154-74 161-7" id="aX"/><g id="s"><use transform="matrix(0.04938271604938272,0,0,0.04938271604938272,0,0)" xlink:href="#aQ"/><use transform="matrix(0.04938271604938272,0,0,0.04938271604938272,12.790123456790125,0)" xlink:href="#aR"/><use transform="matrix(0.04938271604938272,0,0,0.04938271604938272,19.703703703703706,0)" xlink:href="#aS"/><use transform="matrix(0.04938271604938272,0,0,0.04938271604938272,25.58024691358025,0)" xlink:href="#aT"/><use transform="matrix(0.04938271604938272,0,0,0.04938271604938272,30.518518518518523,0)" xlink:href="#aU"/><use transform="matrix(0.04938271604938272,0,0,0.04938271604938272,36.39506172839506,0)" xlink:href="#aV"/><use transform="matrix(0.04938271604938272,0,0,0.04938271604938272,46.27160493827161,0)" xlink:href="#aW"/><use transform="matrix(0.04938271604938272,0,0,0.04938271604938272,56.14814814814815,0)" xlink:href="#aS"/><use transform="matrix(0.04938271604938272,0,0,0.04938271604938272,62.0246913580247,0)" xlink:href="#aX"/></g><g id="t"><use transform="matrix(0.05,0,0,0.05,0,0)" xlink:href="#aJ"/><use transform="matrix(0.05,0,0,0.05,12.950000000000001,0)" xlink:href="#av"/><use transform="matrix(0.05,0,0,0.05,22.950000000000003,0)" xlink:href="#az"/><use transform="matrix(0.05,0,0,0.05,31.950000000000003,0)" xlink:href="#av"/><use transform="matrix(0.05,0,0,0.05,41.95,0)" xlink:href="#au"/><use transform="matrix(0.05,0,0,0.05,45.900000000000006,0)" xlink:href="#ap"/><use transform="matrix(0.05,0,0,0.05,55.900000000000006,0)" xlink:href="#at"/><use transform="matrix(0.05,0,0,0.05,65.9,0)" xlink:href="#am"/><use transform="matrix(0.05,0,0,0.05,80.85000000000001,0)" xlink:href="#av"/><use transform="matrix(0.05,0,0,0.05,90.85000000000001,0)" xlink:href="#aq"/><use transform="matrix(0.05,0,0,0.05,100.85000000000001,0)" xlink:href="#aw"/></g><g id="u"><use transform="matrix(0.05,0,0,0.05,0,0)" xlink:href="#ar"/><use transform="matrix(0.05,0,0,0.05,12,0)" xlink:href="#av"/><use transform="matrix(0.05,0,0,0.05,22,0)" xlink:href="#ax"/><use transform="matrix(0.05,0,0,0.05,27.950000000000003,0)" xlink:href="#az"/><use transform="matrix(0.05,0,0,0.05,36.95,0)" xlink:href="#av"/><use transform="matrix(0.05,0,0,0.05,46.95,0)" xlink:href="#ax"/></g><path d="M266 0h-40l-56-210L115 0H75L2-248h35L96-30l15-64 43-154h32l59 218 59-218h35" id="aY"/><g id="v"><use transform="matrix(0.05,0,0,0.05,0,0)" xlink:href="#al"/><use transform="matrix(0.05,0,0,0.05,11.35,0)" xlink:href="#aY"/><use transform="matrix(0.05,0,0,0.05,28.299999999999997,0)" xlink:href="#ar"/></g><path d="M85-194c31 0 48 13 60 33l-1-100h32l1 261h-30c-2-10 0-23-3-31C134-8 116 4 85 4 32 4 16-35 15-94c0-66 23-100 70-100zm9 24c-40 0-46 34-46 75 0 40 6 74 45 74 42 0 51-32 51-76 0-42-9-74-50-73" id="aZ"/><path d="M160-131c35 5 61 23 61 61C221 17 115-2 30 0v-248c76 3 177-17 177 60 0 33-19 50-47 57zm-97-11c50-1 110 9 110-42 0-47-63-36-110-37v79zm0 115c55-2 124 14 124-45 0-56-70-42-124-44v89" id="ba"/><g id="w"><use transform="matrix(0.05,0,0,0.05,0,0)" xlink:href="#aG"/><use transform="matrix(0.05,0,0,0.05,12.950000000000001,0)" xlink:href="#ap"/><use transform="matrix(0.05,0,0,0.05,22.950000000000003,0)" xlink:href="#aZ"/><use transform="matrix(0.05,0,0,0.05,32.95,0)" xlink:href="#av"/><use transform="matrix(0.05,0,0,0.05,42.95,0)" xlink:href="#ba"/><use transform="matrix(0.05,0,0,0.05,54.95,0)" xlink:href="#aM"/><use transform="matrix(0.05,0,0,0.05,64.95,0)" xlink:href="#as"/><use transform="matrix(0.05,0,0,0.05,68.9,0)" xlink:href="#au"/><use transform="matrix(0.05,0,0,0.05,72.85000000000001,0)" xlink:href="#aZ"/></g><path d="M30-248c87 1 191-15 191 75 0 78-77 80-158 76V0H30v-248zm33 125c57 0 124 11 124-50 0-59-68-47-124-48v98" id="bb"/><g id="x"><use transform="matrix(0.05,0,0,0.05,0,0)" xlink:href="#aG"/><use transform="matrix(0.05,0,0,0.05,12.950000000000001,0)" xlink:href="#ap"/><use transform="matrix(0.05,0,0,0.05,22.950000000000003,0)" xlink:href="#aZ"/><use transform="matrix(0.05,0,0,0.05,32.95,0)" xlink:href="#av"/><use transform="matrix(0.05,0,0,0.05,42.95,0)" xlink:href="#bb"/><use transform="matrix(0.05,0,0,0.05,54.95,0)" xlink:href="#as"/><use transform="matrix(0.05,0,0,0.05,58.900000000000006,0)" xlink:href="#at"/><use transform="matrix(0.05,0,0,0.05,68.9,0)" xlink:href="#av"/><use transform="matrix(0.05,0,0,0.05,78.9,0)" xlink:href="#au"/><use transform="matrix(0.05,0,0,0.05,82.85000000000001,0)" xlink:href="#as"/><use transform="matrix(0.05,0,0,0.05,86.80000000000001,0)" xlink:href="#aq"/><use transform="matrix(0.05,0,0,0.05,96.80000000000001,0)" xlink:href="#av"/></g><g id="y"><use transform="matrix(0.05,0,0,0.05,0,0)" xlink:href="#aG"/><use transform="matrix(0.05,0,0,0.05,12.950000000000001,0)" xlink:href="#ap"/><use transform="matrix(0.05,0,0,0.05,22.950000000000003,0)" xlink:href="#aZ"/><use transform="matrix(0.05,0,0,0.05,32.95,0)" xlink:href="#av"/><use transform="matrix(0.05,0,0,0.05,42.95,0)" xlink:href="#aJ"/><use transform="matrix(0.05,0,0,0.05,55.900000000000006,0)" xlink:href="#av"/><use transform="matrix(0.05,0,0,0.05,65.9,0)" xlink:href="#at"/><use transform="matrix(0.05,0,0,0.05,75.9,0)" xlink:href="#au"/><use transform="matrix(0.05,0,0,0.05,79.85000000000001,0)" xlink:href="#ap"/><use transform="matrix(0.05,0,0,0.05,89.85000000000001,0)" xlink:href="#aI"/></g><g id="z"><use transform="matrix(0.05,0,0,0.05,0,0)" xlink:href="#ar"/><use transform="matrix(0.05,0,0,0.05,12,0)" xlink:href="#as"/><use transform="matrix(0.05,0,0,0.05,15.949999999999998,0)" xlink:href="#am"/><use transform="matrix(0.05,0,0,0.05,30.899999999999995,0)" xlink:href="#at"/><use transform="matrix(0.05,0,0,0.05,40.9,0)" xlink:href="#au"/><use transform="matrix(0.05,0,0,0.05,44.85,0)" xlink:href="#av"/></g><g id="A"><use transform="matrix(0.05,0,0,0.05,0,0)" xlink:href="#ar"/><use transform="matrix(0.05,0,0,0.05,12,0)" xlink:href="#aw"/><use transform="matrix(0.05,0,0,0.05,17,0)" xlink:href="#ap"/><use transform="matrix(0.05,0,0,0.05,27,0)" xlink:href="#ax"/><use transform="matrix(0.05,0,0,0.05,32.95,0)" xlink:href="#an"/><use transform="matrix(0.05,0,0,0.05,42.95,0)" xlink:href="#ay"/><use transform="matrix(0.05,0,0,0.05,52.95,0)" xlink:href="#av"/></g><g id="B"><use transform="matrix(0.05,0,0,0.05,0,0)" xlink:href="#ar"/><use transform="matrix(0.05,0,0,0.05,12,0)" xlink:href="#av"/><use transform="matrix(0.05,0,0,0.05,22,0)" xlink:href="#ax"/><use transform="matrix(0.05,0,0,0.05,27.950000000000003,0)" xlink:href="#az"/><use transform="matrix(0.05,0,0,0.05,36.95,0)" xlink:href="#as"/><use transform="matrix(0.05,0,0,0.05,40.900000000000006,0)" xlink:href="#aA"/><use transform="matrix(0.05,0,0,0.05,49.900000000000006,0)" xlink:href="#av"/></g><g id="C"><use transform="matrix(0.05,0,0,0.05,0,0)" xlink:href="#aB"/><use transform="matrix(0.05,0,0,0.05,5.95,0)" xlink:href="#ar"/><use transform="matrix(0.05,0,0,0.05,17.95,0)" xlink:href="#aC"/><use transform="matrix(0.05,0,0,0.05,27.950000000000003,0)" xlink:href="#aD"/></g><g id="D"><use transform="matrix(0.05,0,0,0.05,0,0)" xlink:href="#aL"/><use transform="matrix(0.05,0,0,0.05,8.950000000000001,0)" xlink:href="#av"/><use transform="matrix(0.05,0,0,0.05,18.950000000000003,0)" xlink:href="#aF"/><use transform="matrix(0.05,0,0,0.05,27.950000000000003,0)" xlink:href="#aw"/></g><g id="E"><use transform="matrix(0.05,0,0,0.05,0,0)" xlink:href="#ar"/><use transform="matrix(0.05,0,0,0.05,12,0)" xlink:href="#aA"/><use transform="matrix(0.05,0,0,0.05,21,0)" xlink:href="#ax"/><use transform="matrix(0.05,0,0,0.05,26.950000000000003,0)" xlink:href="#as"/><use transform="matrix(0.05,0,0,0.05,30.899999999999995,0)" xlink:href="#at"/><use transform="matrix(0.05,0,0,0.05,40.9,0)" xlink:href="#aw"/></g><linearGradient gradientUnits="userSpaceOnUse" id="F" x1="-961.21" y1="522.02" x2="-959.93" y2="639.42"><stop offset="0%" stop-color="#d37857"/><stop offset="32.1%" stop-color="#d27555"/><stop offset="99.9%" stop-color="#ba2e15"/><stop offset="100%" stop-color="#ba2e15"/></linearGradient><linearGradient gradientUnits="userSpaceOnUse" id="G" x1="-960" y1="638.47" x2="-960" y2="522.66"><stop offset="0%" stop-color="#d86613"/><stop offset="90.8%" stop-color="#e38c2c"/></linearGradient><linearGradient gradientUnits="userSpaceOnUse" id="H" x1="-960" y1="638.5" x2="-960" y2="521.5"><stop offset="0%" stop-color="#d86613"/><stop offset="90.8%" stop-color="#e38c2c"/></linearGradient><linearGradient gradientUnits="userSpaceOnUse" id="I" x1="-960" y1="638.5" x2="-960" y2="521.5"><stop offset="0%" stop-color="#d86613"/><stop offset="90.8%" stop-color="#e38c2c"/></linearGradient><g id="J"><use transform="matrix(0.05,0,0,0.05,0,0)" xlink:href="#aL"/><use transform="matrix(0.05,0,0,0.05,8.950000000000001,0)" xlink:href="#av"/><use transform="matrix(0.05,0,0,0.05,18.950000000000003,0)" xlink:href="#aF"/><use transform="matrix(0.05,0,0,0.05,27.950000000000003,0)" xlink:href="#aw"/></g><path d="M67-125c0 54 23 88 75 88 28 0 53-7 68-21v-34h-60v-39h108v91C232-14 192 4 140 4 58 4 20-42 15-125 8-236 126-280 215-234c19 10 29 26 37 47l-47 15c-11-23-29-39-63-39-53 1-75 33-75 86" id="bc"/><path d="M199 0l-22-63H83L61 0H9l90-248h61L250 0h-51zm-33-102l-36-108c-10 38-24 72-36 108h72" id="bd"/><path d="M175 0L67-191c6 58 2 128 3 191H24v-248h59L193-55c-6-58-2-129-3-193h46V0h-61" id="be"/><g id="K"><use transform="matrix(0.05,0,0,0.05,0,0)" xlink:href="#bc"/><use transform="matrix(0.05,0,0,0.05,14,0)" xlink:href="#bd"/><use transform="matrix(0.05,0,0,0.05,26.950000000000003,0)" xlink:href="#be"/></g><path d="M67-125c0 53 21 87 73 88 37 1 54-22 65-47l45 17C233-25 199 4 140 4 58 4 20-42 15-125 8-235 124-281 211-232c18 10 29 29 36 50l-46 12c-8-25-30-41-62-41-52 0-71 34-72 86" id="bf"/><path d="M110-194c64 0 96 36 96 99 0 64-35 99-97 99-61 0-95-36-95-99 0-62 34-99 96-99zm-1 164c35 0 45-28 45-65 0-40-10-65-43-65-34 0-45 26-45 65 0 36 10 65 43 65" id="bg"/><path d="M135-194c87-1 58 113 63 194h-50c-7-57 23-157-34-157-59 0-34 97-39 157H25l-1-190h47c2 12-1 28 3 38 12-26 28-41 61-42" id="bh"/><path d="M115-3C79 11 28 4 28-45v-112H4v-33h27l15-45h31v45h36v33H77v99c-1 23 16 31 38 25v30" id="bi"/><path d="M133-34C117-15 103 5 69 4 32 3 11-16 11-54c-1-60 55-63 116-61 1-26-3-47-28-47-18 1-26 9-28 27l-52-2c7-38 36-58 82-57s74 22 75 68l1 82c-1 14 12 18 25 15v27c-30 8-71 5-69-32zm-48 3c29 0 43-24 42-57-32 0-66-3-65 30 0 17 8 27 23 27" id="bj"/><path d="M25-224v-37h50v37H25zM25 0v-190h50V0H25" id="bk"/><path d="M185-48c-13 30-37 53-82 52C43 2 14-33 14-96s30-98 90-98c62 0 83 45 84 108H66c0 31 8 55 39 56 18 0 30-7 34-22zm-45-69c5-46-57-63-70-21-2 6-4 13-4 21h74" id="bl"/><path d="M135-150c-39-12-60 13-60 57V0H25l-1-190h47c2 13-1 29 3 40 6-28 27-53 61-41v41" id="bm"/><g id="L"><use transform="matrix(0.05,0,0,0.05,0,0)" xlink:href="#bf"/><use transform="matrix(0.05,0,0,0.05,12.950000000000001,0)" xlink:href="#bg"/><use transform="matrix(0.05,0,0,0.05,23.900000000000002,0)" xlink:href="#bh"/><use transform="matrix(0.05,0,0,0.05,34.85,0)" xlink:href="#bi"/><use transform="matrix(0.05,0,0,0.05,40.800000000000004,0)" xlink:href="#bj"/><use transform="matrix(0.05,0,0,0.05,50.800000000000004,0)" xlink:href="#bk"/><use transform="matrix(0.05,0,0,0.05,55.800000000000004,0)" xlink:href="#bh"/><use transform="matrix(0.05,0,0,0.05,66.75,0)" xlink:href="#bl"/><use transform="matrix(0.05,0,0,0.05,76.75,0)" xlink:href="#bm"/></g><path d="M24 0v-248h52V0H24" id="bn"/><path d="M220-157c-53 9-28 100-34 157h-49v-107c1-27-5-49-29-50C55-147 81-57 75 0H25l-1-190h47c2 12-1 28 3 38 10-53 101-56 108 0 13-22 24-43 59-42 82 1 51 116 57 194h-49v-107c-1-25-5-48-29-50" id="bo"/><path d="M195-6C206 82 75 100 31 46c-4-6-6-13-8-21l49-6c3 16 16 24 34 25 40 0 42-37 40-79-11 22-30 35-61 35-53 0-70-43-70-97 0-56 18-96 73-97 30 0 46 14 59 34l2-30h47zm-90-29c32 0 41-27 41-63 0-35-9-62-40-62-32 0-39 29-40 63 0 36 9 62 39 62" id="bp"/><g id="M"><use transform="matrix(0.05,0,0,0.05,0,0)" xlink:href="#bn"/><use transform="matrix(0.05,0,0,0.05,5,0)" xlink:href="#bo"/><use transform="matrix(0.05,0,0,0.05,21,0)" xlink:href="#bj"/><use transform="matrix(0.05,0,0,0.05,31,0)" xlink:href="#bp"/><use transform="matrix(0.05,0,0,0.05,41.95,0)" xlink:href="#bl"/></g><path d="M24-248c120-7 223 5 221 122C244-46 201 0 124 0H24v-248zM76-40c74 7 117-18 117-86 0-67-45-88-117-82v168" id="bq"/><path d="M137-138c1-29-70-34-71-4 15 46 118 7 119 86 1 83-164 76-172 9l43-7c4 19 20 25 44 25 33 8 57-30 24-41C81-84 22-81 20-136c-2-80 154-74 161-7" id="br"/><g id="N"><use transform="matrix(0.05,0,0,0.05,0,0)" xlink:href="#bq"/><use transform="matrix(0.05,0,0,0.05,12.950000000000001,0)" xlink:href="#bj"/><use transform="matrix(0.05,0,0,0.05,22.950000000000003,0)" xlink:href="#bi"/><use transform="matrix(0.05,0,0,0.05,28.900000000000002,0)" xlink:href="#bj"/><use transform="matrix(0.05,0,0,0.05,38.900000000000006,0)" xlink:href="#br"/><use transform="matrix(0.05,0,0,0.05,48.900000000000006,0)" xlink:href="#bl"/><use transform="matrix(0.05,0,0,0.05,58.900000000000006,0)" xlink:href="#bi"/><use transform="matrix(0.05,0,0,0.05,64.85000000000001,0)" xlink:href="#br"/></g><radialGradient gradientUnits="userSpaceOnUse" id="O" fx="-702.83" fy="279.82" cx="-702.83" cy="279.82" r="59.75"><stop offset="18.3%" stop-color="#fa3240"/><stop offset="100%" stop-color="#9c0a25"/></radialGradient><linearGradient gradientUnits="userSpaceOnUse" id="P" x1="-702.5" y1="341.56" x2="-703.2" y2="254.63"><stop offset="0%" stop-color="#ff5e1d"/><stop offset="12.3%" stop-color="#ff6928"/><stop offset="100%" stop-color="#ff8e4d"/></linearGradient><linearGradient gradientUnits="userSpaceOnUse" id="Q" x1="-703" y1="339.96" x2="-703" y2="220"><stop offset="0%" stop-color="#ff5e1d"/><stop offset="12.3%" stop-color="#ff6928"/><stop offset="100%" stop-color="#ff8e4d"/></linearGradient><linearGradient gradientUnits="userSpaceOnUse" id="R" x1="-704.21" y1="220.54" x2="-702.93" y2="340.94"><stop offset="0%" stop-color="#ce6646"/><stop offset="32.1%" stop-color="#cd6344"/><stop offset="100%" stop-color="#b51c04"/></linearGradient><path fill="#333" d="M238-95c0 69-44 99-111 99C63 4 22-25 22-93v-155h51v151c-1 38 19 59 55 60 90 1 49-130 58-211h52v153" id="bs"/><path fill="#333" d="M135-194c87-1 58 113 63 194h-50c-7-57 23-157-34-157-59 0-34 97-39 157H25l-1-190h47c2 12-1 28 3 38 12-26 28-41 61-42" id="bt"/><g id="S"><use transform="matrix(0.04938271604938272,0,0,0.04938271604938272,0,0)" xlink:href="#bs"/><use transform="matrix(0.04938271604938272,0,0,0.04938271604938272,12.790123456790125,0)" xlink:href="#bt"/><use transform="matrix(0.04938271604938272,0,0,0.04938271604938272,23.60493827160494,0)" xlink:href="#aT"/><use transform="matrix(0.04938271604938272,0,0,0.04938271604938272,28.543209876543212,0)" xlink:href="#aS"/></g><path fill="#333" d="M136-208V0H84v-208H4v-40h212v40h-80" id="bu"/><path fill="#333" d="M185-48c-13 30-37 53-82 52C43 2 14-33 14-96s30-98 90-98c62 0 83 45 84 108H66c0 31 8 55 39 56 18 0 30-7 34-22zm-45-69c5-46-57-63-70-21-2 6-4 13-4 21h74" id="bv"/><g id="T"><use transform="matrix(0.04938271604938272,0,0,0.04938271604938272,0,0)" xlink:href="#bu"/><use transform="matrix(0.04938271604938272,0,0,0.04938271604938272,9.481481481481481,0)" xlink:href="#bv"/><use transform="matrix(0.04938271604938272,0,0,0.04938271604938272,19.358024691358025,0)" xlink:href="#aX"/><use transform="matrix(0.04938271604938272,0,0,0.04938271604938272,29.23456790123457,0)" xlink:href="#aS"/><use transform="matrix(0.04938271604938272,0,0,0.04938271604938272,35.111111111111114,0)" xlink:href="#aX"/></g><path d="M238-95c0 69-44 99-111 99C63 4 22-25 22-93v-155h51v151c-1 38 19 59 55 60 90 1 49-130 58-211h52v153" id="bw"/><g id="U"><use transform="matrix(0.05,0,0,0.05,0,0)" xlink:href="#bw"/><use transform="matrix(0.05,0,0,0.05,12.950000000000001,0)" xlink:href="#bh"/><use transform="matrix(0.05,0,0,0.05,23.900000000000002,0)" xlink:href="#bk"/><use transform="matrix(0.05,0,0,0.05,28.900000000000002,0)" xlink:href="#bi"/></g><path d="M136-208V0H84v-208H4v-40h212v40h-80" id="bx"/><g id="V"><use transform="matrix(0.05,0,0,0.05,0,0)" xlink:href="#bx"/><use transform="matrix(0.05,0,0,0.05,9.600000000000001,0)" xlink:href="#bl"/><use transform="matrix(0.05,0,0,0.05,19.6,0)" xlink:href="#br"/><use transform="matrix(0.05,0,0,0.05,29.6,0)" xlink:href="#bi"/><use transform="matrix(0.05,0,0,0.05,35.550000000000004,0)" xlink:href="#br"/></g><g id="W"><use transform="matrix(0.06234567901234567,0,0,0.06234567901234567,0,0)" xlink:href="#bc"/><use transform="matrix(0.06234567901234567,0,0,0.06234567901234567,17.456790123456788,0)" xlink:href="#bd"/><use transform="matrix(0.06234567901234567,0,0,0.06234567901234567,33.60432098765432,0)" xlink:href="#be"/></g><path d="M88-194c31-1 46 15 58 34l-1-101h50l1 261h-48c-2-10 0-23-3-31C134-8 116 4 84 4 32 4 16-41 15-95c0-56 19-97 73-99zm17 164c33 0 40-30 41-66 1-37-9-64-41-64s-38 30-39 65c0 43 13 65 39 65" id="by"/><path d="M135-194c53 0 70 44 70 98 0 56-19 98-73 100-31 1-45-17-59-34 3 33 2 69 2 105H25l-1-265h48c2 10 0 23 3 31 11-24 29-35 60-35zM114-30c33 0 39-31 40-66 0-38-9-64-40-64-56 0-55 130 0 130" id="bz"/><path d="M25 0v-261h50V0H25" id="bA"/><path d="M123 10C108 53 80 86 19 72V37c35 8 53-11 59-39L3-190h52l48 148c12-52 28-100 44-148h51" id="bB"/><g id="X"><use transform="matrix(0.06234567901234567,0,0,0.06234567901234567,0,0)" xlink:href="#by"/><use transform="matrix(0.06234567901234567,0,0,0.06234567901234567,13.653703703703702,0)" xlink:href="#bl"/><use transform="matrix(0.06234567901234567,0,0,0.06234567901234567,26.122839506172834,0)" xlink:href="#bz"/><use transform="matrix(0.06234567901234567,0,0,0.06234567901234567,39.776543209876536,0)" xlink:href="#bA"/><use transform="matrix(0.06234567901234567,0,0,0.06234567901234567,46.011111111111106,0)" xlink:href="#bg"/><use transform="matrix(0.06234567901234567,0,0,0.06234567901234567,59.664814814814804,0)" xlink:href="#bB"/><use transform="matrix(0.06234567901234567,0,0,0.06234567901234567,72.13395061728394,0)" xlink:href="#bo"/><use transform="matrix(0.06234567901234567,0,0,0.06234567901234567,92.08456790123455,0)" xlink:href="#bl"/><use transform="matrix(0.06234567901234567,0,0,0.06234567901234567,104.55370370370369,0)" xlink:href="#bh"/><use transform="matrix(0.06234567901234567,0,0,0.06234567901234567,118.20740740740739,0)" xlink:href="#bi"/></g><g id="Y"><use transform="matrix(0.06234567901234567,0,0,0.06234567901234567,0,0)" xlink:href="#bj"/><use transform="matrix(0.06234567901234567,0,0,0.06234567901234567,12.469135802469133,0)" xlink:href="#bh"/><use transform="matrix(0.06234567901234567,0,0,0.06234567901234567,26.122839506172834,0)" xlink:href="#by"/></g><g id="Z"><use transform="matrix(0.06234567901234567,0,0,0.06234567901234567,0,0)" xlink:href="#bi"/><use transform="matrix(0.06234567901234567,0,0,0.06234567901234567,7.4191358024691345,0)" xlink:href="#bm"/><use transform="matrix(0.06234567901234567,0,0,0.06234567901234567,16.147530864197527,0)" xlink:href="#bj"/><use transform="matrix(0.06234567901234567,0,0,0.06234567901234567,28.61666666666666,0)" xlink:href="#bk"/><use transform="matrix(0.06234567901234567,0,0,0.06234567901234567,34.85123456790123,0)" xlink:href="#bh"/><use transform="matrix(0.06234567901234567,0,0,0.06234567901234567,48.50493827160493,0)" xlink:href="#bk"/><use transform="matrix(0.06234567901234567,0,0,0.06234567901234567,54.7395061728395,0)" xlink:href="#bh"/><use transform="matrix(0.06234567901234567,0,0,0.06234567901234567,68.3932098765432,0)" xlink:href="#bp"/></g><path d="M230 0l2-204L168 0h-37L68-204 70 0H24v-248h70l56 185 57-185h69V0h-46" id="bC"/><g id="aa"><use transform="matrix(0.06234567901234567,0,0,0.06234567901234567,0,0)" xlink:href="#bC"/><use transform="matrix(0.06234567901234567,0,0,0.06234567901234567,18.641358024691353,0)" xlink:href="#bg"/><use transform="matrix(0.06234567901234567,0,0,0.06234567901234567,32.295061728395055,0)" xlink:href="#by"/><use transform="matrix(0.06234567901234567,0,0,0.06234567901234567,45.94876543209875,0)" xlink:href="#bl"/><use transform="matrix(0.06234567901234567,0,0,0.06234567901234567,58.417901234567886,0)" xlink:href="#bA"/></g><path d="M121-226c-27-7-43 5-38 36h38v33H83V0H34v-157H6v-33h28c-9-59 32-81 87-68v32" id="bD"/><path d="M190-63c-7 42-38 67-86 67-59 0-84-38-90-98-12-110 154-137 174-36l-49 2c-2-19-15-32-35-32-30 0-35 28-38 64-6 74 65 87 74 30" id="bE"/><g id="ab"><use transform="matrix(0.06234567901234567,0,0,0.06234567901234567,0,0)" xlink:href="#bn"/><use transform="matrix(0.06234567901234567,0,0,0.06234567901234567,6.234567901234566,0)" xlink:href="#bh"/><use transform="matrix(0.06234567901234567,0,0,0.06234567901234567,19.888271604938268,0)" xlink:href="#bD"/><use transform="matrix(0.06234567901234567,0,0,0.06234567901234567,27.307407407407403,0)" xlink:href="#bl"/><use transform="matrix(0.06234567901234567,0,0,0.06234567901234567,39.776543209876536,0)" xlink:href="#bm"/><use transform="matrix(0.06234567901234567,0,0,0.06234567901234567,48.50493827160493,0)" xlink:href="#bl"/><use transform="matrix(0.06234567901234567,0,0,0.06234567901234567,60.97407407407406,0)" xlink:href="#bh"/><use transform="matrix(0.06234567901234567,0,0,0.06234567901234567,74.62777777777777,0)" xlink:href="#bE"/><use transform="matrix(0.06234567901234567,0,0,0.06234567901234567,87.0969135802469,0)" xlink:href="#bl"/></g><path d="M24 0v-248h195v40H76v63h132v40H76v65h150V0H24" id="bF"/><path d="M169-182c-1-43-94-46-97-3 18 66 151 10 154 114 3 95-165 93-204 36-6-8-10-19-12-30l50-8c3 46 112 56 116 5-17-69-150-10-154-114-4-87 153-88 188-35 5 8 8 18 10 28" id="bG"/><g id="ac"><use transform="matrix(0.09876543209876544,0,0,0.09876543209876544,0,0)" xlink:href="#bx"/><use transform="matrix(0.09876543209876544,0,0,0.09876543209876544,21.62962962962963,0)" xlink:href="#bF"/><use transform="matrix(0.09876543209876544,0,0,0.09876543209876544,45.333333333333336,0)" xlink:href="#bG"/><use transform="matrix(0.09876543209876544,0,0,0.09876543209876544,69.03703703703704,0)" xlink:href="#bx"/><use transform="matrix(0.09876543209876544,0,0,0.09876543209876544,88,0)" xlink:href="#bB"/><use transform="matrix(0.09876543209876544,0,0,0.09876543209876544,107.75308641975309,0)" xlink:href="#bh"/><use transform="matrix(0.09876543209876544,0,0,0.09876543209876544,129.3827160493827,0)" xlink:href="#bj"/><use transform="matrix(0.09876543209876544,0,0,0.09876543209876544,149.1358024691358,0)" xlink:href="#bo"/><use transform="matrix(0.09876543209876544,0,0,0.09876543209876544,180.74074074074073,0)" xlink:href="#bg"/></g></defs></g></svg>